<?xml version="1.0" encoding="utf-8"?>
<!-- Generator: Adobe Illustrator 22.0.0, SVG Export Plug-In . SVG Version: 6.00 Build 0)  -->
<svg version="1.1" id="图层_1" xmlns="http://www.w3.org/2000/svg" xmlns:xlink="http://www.w3.org/1999/xlink" x="0px" y="0px"
	 viewBox="0 0 24 24" style="enable-background:new 0 0 24 24;" xml:space="preserve">
<style type="text/css">
	.st0{fill-opacity:0;}
	.st1{fill:#4585F5;}
</style>
<desc>Created with Sketch.</desc>
<rect id="矩形" class="st0" width="24" height="24"/>
<path class="st1" d="M17.7,5.8h-4.3v12.8c0.6,0,1,0.4,1,1s-0.4,1-1,1H11c-0.6,0-1-0.4-1-1s0.4-1,1-1V5.8H6.3v0.5c0,0.6-0.4,1-1,1
	s-1-0.4-1-1V4.9V4.4c0-0.6,0.4-1,1-1h13.3c0.6,0,1,0.4,1,1v0.5v1.4c0,0.6-0.4,1-1,1c-0.6,0-1-0.4-1-1V5.8z"/>
</svg>
