<?xml version="1.0" encoding="UTF-8"?>
<svg width="24px" height="24px" viewBox="0 0 24 24" version="1.1" xmlns="http://www.w3.org/2000/svg" xmlns:xlink="http://www.w3.org/1999/xlink">
    <!-- Generator: Sketch 54.1 (76490) - https://sketchapp.com -->
    
    <desc>Created with Sketch.</desc>
    <g id="iframe" stroke="none" stroke-width="1" fill="none" fill-rule="evenodd">
        <g fill-rule="nonzero">
            <rect id="矩形" fill="#000000" opacity="0" x="0" y="0" width="24" height="24"></rect>
            <path d="M18.4285714,2 L5.57142857,2 C3.57142857,2 2,3.57142857 2,5.57142857 L2,18.4285714 C2,20.4285714 3.57142857,22 5.57142857,22 L18.4285714,22 C20.4285714,22 22,20.4285714 22,18.4285714 L22,5.57142857 C22,3.57142857 20.4285714,2 18.4285714,2 Z M3.42857143,5.57142857 C3.42857143,4.42857143 4.42857143,3.42857143 5.57142857,3.42857143 L18.4285714,3.42857143 C19.5714286,3.42857143 20.5714286,4.42857143 20.5714286,5.57142857 L20.5714286,7.42857143 L3.42857143,7.42857143 L3.42857143,5.57142857 Z M20.5714286,18.4285714 C20.5714286,19.5714286 19.5714286,20.5714286 18.4285714,20.5714286 L5.57142857,20.5714286 C4.42857143,20.5714286 3.42857143,19.5714286 3.42857143,18.4285714 L3.42857143,8.85714286 L20.5714286,8.85714286 L20.5714286,18.4285714 Z M4.57142857,5.42857143 C4.57142857,5.82306054 4.89122518,6.14285714 5.28571429,6.14285714 C5.68020339,6.14285714 6,5.82306054 6,5.42857143 C6,5.03408232 5.68020339,4.71428571 5.28571429,4.71428571 C4.89122518,4.71428571 4.57142857,5.03408232 4.57142857,5.42857143 Z M6.85714286,5.42857143 C6.85714286,5.82306054 7.17693946,6.14285714 7.57142857,6.14285714 C7.96591768,6.14285714 8.28571429,5.82306054 8.28571429,5.42857143 C8.28571429,5.03408232 7.96591768,4.71428571 7.57142857,4.71428571 C7.17693946,4.71428571 6.85714286,5.03408232 6.85714286,5.42857143 Z M9.28571429,5.42857143 C9.28571429,5.82306054 9.60551089,6.14285714 10,6.14285714 C10.3944891,6.14285714 10.7142857,5.82306054 10.7142857,5.42857143 C10.7142857,5.03408232 10.3944891,4.71428571 10,4.71428571 C9.60551089,4.71428571 9.28571429,5.03408232 9.28571429,5.42857143 Z" id="形状" fill="#4585F5"></path>
            <path d="M11.9602273,10.8 C13.1280992,10.8 14.0284091,11.1904959 14.6394628,11.9931818 C15.196281,12.7163223 15.4855372,13.7142562 15.5,14.9905992 L10.0583678,14.9905992 C10.1126033,15.684814 10.2933884,16.2271694 10.6260331,16.5995868 C10.9586777,16.961157 11.4178719,17.156405 12,17.156405 C12.5134298,17.156405 12.9292355,17.0298554 13.2510331,16.7948347 C13.5005165,16.5995868 13.7102273,16.281405 13.9018595,15.8655992 L15.3734504,15.8655992 C15.2071281,16.5308884 14.8889463,17.1021694 14.3863636,17.5469008 C13.7608471,18.0892562 12.9690083,18.3676653 12.0108471,18.3676653 C10.955062,18.3676653 10.1089876,18.0350207 9.49793388,17.3805785 C8.83264463,16.6863636 8.5,15.7571281 8.5,14.5747934 C8.5,13.5045455 8.80371901,12.6186983 9.44369835,11.8955579 C10.0583678,11.1615702 10.9080579,10.8 11.9602273,10.8 L11.9602273,10.8 Z M12.0036157,12.0076446 C11.4467975,12.0076446 11.0165289,12.1595041 10.6838843,12.4921488 C10.3801653,12.8103306 10.1704545,13.2695248 10.0872934,13.8805785 L13.9597107,13.8805785 C13.822314,12.6331612 13.1678719,12.0076446 12.0036157,12.0076446 L12.0036157,12.0076446 Z" id="形状" fill="#29CCB6"></path>
        </g>
    </g>
</svg>