<?xml version="1.0" encoding="utf-8"?>
<!-- Generator: Adobe Illustrator 22.0.0, SVG Export Plug-In . SVG Version: 6.00 Build 0)  -->
<svg version="1.1" id="图层_1" xmlns="http://www.w3.org/2000/svg" xmlns:xlink="http://www.w3.org/1999/xlink" x="0px" y="0px"
	 viewBox="0 0 200 200" style="enable-background:new 0 0 200 200;" xml:space="preserve">
<style type="text/css">
	.st0{fill:#29CCB6;}
	.st1{fill:#FFFFFF;}
	.st2{fill:none;stroke:#4585F5;stroke-width:14;stroke-miterlimit:10;}
</style>
<path class="st0" d="M123.9,81.4v-7.3c0-4.6-3.8-8.4-8.4-8.4H53.8c-4.6,0-8.4,3.8-8.4,8.4v51.7c0,4.6,3.8,8.4,8.4,8.4h61.7
	c4.6,0,8.4-3.8,8.4-8.4v-11l0,0.2l27.1,12.7c1.6,0.8,3.5-0.4,3.5-2.2V74.8c0-1.8-1.9-3-3.5-2.2l-23.6,11.2
	C125.8,84.4,123.9,83.2,123.9,81.4z"/>
<path id="形状结合" class="st1" d="M89,119.7c-10.9,0-19.7-8.9-19.7-19.7S78.1,80.3,89,80.3c10.9,0,19.7,8.9,19.7,19.7
	C108.8,110.9,99.9,119.7,89,119.7z M100,100c0-6.1-4.9-11-11-11c-6,0-11,4.9-11,11c0,6,4.9,11,11,11C95.1,111,100,106.1,100,100z"/>
<path class="st2" d="M151.9,176.4H48.1c-13.5,0-24.5-11-24.5-24.5V48.1c0-13.5,11-24.5,24.5-24.5h103.8c13.5,0,24.5,11,24.5,24.5
	v103.8C176.4,165.4,165.4,176.4,151.9,176.4z"/>
</svg>
