<?xml version="1.0" encoding="UTF-8"?>
<svg width="24px" height="24px" viewBox="0 0 24 24" version="1.1" xmlns="http://www.w3.org/2000/svg" xmlns:xlink="http://www.w3.org/1999/xlink">
    <!-- Generator: Sketch 54.1 (76490) - https://sketchapp.com -->
    
    <desc>Created with Sketch.</desc>
    <g id="代码" stroke="none" stroke-width="1" fill="none" fill-rule="evenodd">
        <g fill-rule="nonzero">
            <rect id="矩形" fill="#000000" opacity="0" x="0" y="0" width="24" height="24"></rect>
            <path d="M7.7825,7.2115 C7.5005,6.9295 7.046,6.9295 6.764,7.2115 L2.2115,11.7595 C1.9295,12.04 1.9295,12.4945 2.2115,12.7765 L6.7655,17.3245 C7.0475,17.605 7.502,17.605 7.784,17.3245 C8.066,17.0425 8.066,16.5895 7.784,16.3075 L3.737,12.268 L7.7825,8.227 C8.0645,7.9465 8.0645,7.492 7.7825,7.2115 Z M21.368,11.7595 L16.814,7.2115 C16.532,6.9295 16.076,6.9295 15.7955,7.2115 C15.5135,7.492 15.5135,7.9465 15.7955,8.227 L19.841,12.268 L15.7955,16.3075 C15.5135,16.5895 15.5135,17.0425 15.7955,17.3245 C16.076,17.605 16.532,17.605 16.814,17.3245 L21.368,12.7765 C21.65,12.496 21.65,12.04 21.368,11.7595 Z" id="形状" stroke="#4585F5" fill="#4585F5"></path>
        </g>
    </g>
</svg>