<?xml version="1.0" encoding="UTF-8"?>
<svg width="24px" height="24px" viewBox="0 0 24 24" version="1.1" xmlns="http://www.w3.org/2000/svg" xmlns:xlink="http://www.w3.org/1999/xlink">
    <!-- Generator: Sketch 54.1 (76490) - https://sketchapp.com -->
    
    <desc>Created with Sketch.</desc>
    <g id="分割线" stroke="none" stroke-width="1" fill="none" fill-rule="evenodd">
        <g fill-rule="nonzero">
            <rect id="矩形" fill="#000000" opacity="0" x="0" y="0" width="24" height="24"></rect>
            <path d="M19.9493924,6.33453125 L19.9493924,7.50611979 L18.7777778,7.50611979 L19.9493924,6.33453125 Z M14.8687196,3 L10.3625998,7.50611979 L9.06710503,7.50611979 L13.5731988,3 L14.8687196,3 Z M19.8016146,3 L15.2954948,7.50611979 L14,7.50611979 L18.5060938,3 L19.8016146,3 Z M10.1893338,3 L5.68321398,7.50611979 L4.38769314,7.50611979 L8.89381293,3 L10.1893338,3 Z M3,5.50877604 L3,4.22567708 L4.22567708,3 L5.50992188,3 L3,5.50877604 Z M19.9493924,20.3592491 L19.9493924,21.5308377 L18.7777778,21.5308377 L19.9493924,20.3592491 Z M14.8687196,17.0247179 L10.3625998,21.5308377 L9.06710503,21.5308377 L13.5731988,17.0247179 L14.8687196,17.0247179 Z M19.8016146,17.0247179 L15.2954948,21.5308377 L14,21.5308377 L18.5060937,17.0247179 L19.8016146,17.0247179 Z M10.1893338,17.0247179 L5.68321398,21.5308377 L4.38769314,21.5308377 L8.89381293,17.0247179 L10.1893338,17.0247179 Z M3,19.5334939 L3,18.250395 L4.22567708,17.0247179 L5.50992187,17.0247179 L3,19.5334939 Z" id="形状结合" fill="#29CCB6"></path>
            <rect id="矩形" fill="#4585F5" x="3" y="11" width="17" height="2.77777778" rx="1.38888889"></rect>
        </g>
    </g>
</svg>