<?xml version="1.0" encoding="UTF-8"?>
<svg width="24px" height="24px" viewBox="0 0 24 24" version="1.1" xmlns="http://www.w3.org/2000/svg" xmlns:xlink="http://www.w3.org/1999/xlink">
    <!-- Generator: Sketch 54.1 (76490) - https://sketchapp.com -->
    
    <desc>Created with Sketch.</desc>
    <g id="图片" stroke="none" stroke-width="1" fill="none" fill-rule="evenodd">
        <g fill-rule="nonzero">
            <rect id="矩形" fill="#000000" opacity="0" x="0" y="0" width="24" height="24"></rect>
            <path d="M19.4987571,2 L4.4998352,2 C3.12113456,2 2,3.12113456 2,4.49981288 L2,19.4987348 C2,20.8774131 3.12111224,21.99857 4.4998352,21.99857 L19.4987571,21.99857 C20.8774354,21.99857 21.99857,20.8774131 21.99857,19.4987348 L21.99857,4.49985752 C21.99857,3.1211792 20.8774354,2.00002232 19.4987571,2.00002232 L19.4987571,2 Z M20.7486412,19.4987348 C20.7486412,20.1877949 20.1877726,20.7486636 19.4987348,20.7486636 L4.4998352,20.7486636 C3.81077506,20.7486636 3.24992876,20.1877949 3.24992876,19.4987348 L3.24992876,4.49985752 C3.24992876,3.81079738 3.8108197,3.24995108 4.4998352,3.24995108 L19.4987571,3.24995108 C20.1878173,3.24995108 20.7486636,3.8108197 20.7486636,4.49985752 L20.7486636,19.4987571 L20.7486412,19.4987348 Z M19.2204768,12.7292044 L17.3455948,11.4792979 C17.1124706,11.3242761 16.8201502,11.3523341 16.6138563,11.5177353 L16.6083652,11.5110389 L13.6355182,13.8894013 L9.22850207,10.8592331 C9.22664939,10.8580054 9.22484136,10.8580054 9.22363601,10.8567777 C9.17236386,10.8226261 9.11437299,10.8036752 9.05577944,10.7853717 C9.03627058,10.779278 9.01859207,10.7658406 8.99841357,10.7621575 C8.94533339,10.7511754 8.89102554,10.7572915 8.83607037,10.7603495 C8.81104814,10.7621799 8.7854009,10.7554835 8.76100366,10.7603495 C8.7335484,10.7652156 8.70854849,10.7823137 8.68167358,10.7914655 C8.63100411,10.8079609 8.57975428,10.8219788 8.53399551,10.8518894 C8.53214284,10.853117 8.52970981,10.853117 8.52787946,10.8543447 L4.7781155,13.3541576 C4.49066113,13.5457864 4.41316139,13.9333074 4.6047902,14.2207618 C4.725013,14.4014308 4.92338286,14.499109 5.1253911,14.499109 C5.24440855,14.499109 5.36463135,14.4648904 5.47143902,14.3941094 L8.86903901,12.1292957 L18.5198096,18.7639159 C18.6236771,18.8356417 18.7469528,18.873977 18.8731789,18.8738039 C19.0721291,18.8738039 19.2674409,18.779206 19.3889137,18.6028227 C19.5842033,18.3184487 19.5121946,17.9297 19.2277759,17.7337632 L14.7120994,14.6291086 L17.0325379,12.7731551 L18.5271533,13.7691562 C18.6339833,13.8399595 18.7541838,13.8741558 18.8732012,13.8741558 C19.0752095,13.8741558 19.2735793,13.7765222 19.3938021,13.5958309 C19.5854086,13.3083988 19.5079089,12.9208332 19.2204545,12.7292044 L19.2204768,12.7292044 Z" id="形状" fill="#4585F5"></path>
            <path d="M13.5616569,10.1244142 C12.0109033,10.1244142 10.7493897,8.86292296 10.7493897,7.31212469 C10.7493897,5.76132642 12.0108809,4.49981288 13.5616569,4.49981288 C15.1124552,4.49981288 16.3739687,5.76132642 16.3739687,7.31214701 C16.3739687,8.86290064 15.1124552,10.1244142 13.5616569,10.1244142 Z M15.1240399,7.31212469 C15.1240399,6.45036424 14.4234173,5.74976396 13.5616569,5.74976396 C12.6999411,5.74976396 11.9992738,6.45036424 11.9992738,7.31212469 C11.9992738,8.17384049 12.6999188,8.87450774 13.5616569,8.87450774 C14.4234173,8.87450774 15.1240399,8.17388514 15.1240399,7.31212469 Z" id="形状结合" fill="#29CCB6"></path>
        </g>
    </g>
</svg>