<?xml version="1.0" encoding="UTF-8"?>
<svg width="24px" height="24px" viewBox="0 0 24 24" version="1.1" xmlns="http://www.w3.org/2000/svg" xmlns:xlink="http://www.w3.org/1999/xlink">
    <!-- Generator: Sketch 54.1 (76490) - https://sketchapp.com -->
    
    <desc>Created with Sketch.</desc>
    <g id="存储/白色" stroke="none" stroke-width="1" fill="none" fill-rule="evenodd">
        <g id="存储" fill-rule="nonzero">
            <rect id="矩形" fill="#000000" opacity="0" x="0" y="0" width="24" height="24"></rect>
            <path d="M18.6648665,1.18678162 C18.5444547,1.06637225 18.3841465,1 18.2136707,1 L2.52790824,1 C1.68541292,1 1,1.68555409 1,2.52826486 L1,21.4717351 C1,22.3144459 1.68541292,23 2.52790824,23 L21.4717562,23 C22.314458,23 23,22.3144459 23,21.4717351 L23,5.78594997 C23.0000516,5.61813554 22.9320006,5.45380487 22.8132146,5.33504707 L18.6648665,1.18678162 Z M14.5804403,2.27521422 L15.963137,2.27521422 L15.963137,6.99094689 L14.5804403,6.99094689 L14.5804403,2.27521422 Z M8.00968905,2.27521422 L13.3052264,2.27521422 L13.3052264,6.99094689 L8.00968905,6.99094689 L8.00968905,2.27521422 L8.00968905,2.27521422 Z M18.1453617,21.7247084 L6.2594087,21.7247084 L6.2594087,15.0209824 C6.2594087,13.7931474 7.25828965,12.7942606 8.48612329,12.7942606 L15.9183632,12.7942606 C17.1463775,12.7942606 18.1453101,13.7931474 18.1453101,15.0209824 L18.1453617,21.7247084 L18.1453617,21.7247084 Z M21.7247861,21.4717351 C21.7247861,21.6112665 21.6112904,21.7248116 21.4718337,21.7248116 L19.420782,21.7248116 L19.420782,15.0210856 C19.420782,13.0900971 17.8496741,11.5191754 15.9184664,11.5191754 L8.4861749,11.5191754 C6.55519947,11.5191754 4.98427228,13.0901229 4.98427228,15.0210856 L4.98427228,21.7248116 L2.52801147,21.7248116 C2.38870955,21.7248116 2.27536868,21.6113181 2.27536868,21.4717351 L2.27536868,2.52826486 C2.27536868,2.38873347 2.38868374,2.27521422 2.52801147,2.27521422 L6.73452682,2.27521422 L6.73452682,7.04565497 C6.73452682,7.71864168 7.28192814,8.26616111 7.95469602,8.26616111 L16.0183881,8.26616111 C16.6912334,8.26616111 17.2386347,7.71866749 17.2386347,7.04565497 L17.2386347,2.27521422 L17.9500603,2.27521422 L21.7248636,6.04994223 L21.7248636,21.4717351 L21.7248377,21.4717351 L21.7247861,21.4717351 Z" id="形状" fill="#FFFFFF"></path>
        </g>
    </g>
</svg>