<?xml version="1.0" encoding="UTF-8"?>
<svg width="15px" height="15px" viewBox="0 0 18 18" version="1.1" xmlns="http://www.w3.org/2000/svg" xmlns:xlink="http://www.w3.org/1999/xlink">
    <!-- Generator: Sketch 54.1 (76490) - https://sketchapp.com -->
    
    <desc>Created with Sketch.</desc>
    <g id="已打开" stroke="none" stroke-width="1" fill="none" fill-rule="evenodd">
        <g id="打开" fill-rule="nonzero">
            <rect id="矩形" fill="#000000" opacity="0" x="0" y="0" width="18" height="18"></rect>
            <path d="M15.4250079,2.15037073 L15.4250079,2.15037073 C15.4013397,2.02738611 15.3210272,1.9182925 15.1988784,1.84320715 L12.8415175,0.394105226 C12.7661327,0.347747111 12.6703898,0.331349169 12.5789524,0.349144433 C12.4874653,0.366898612 12.4106371,0.416791109 12.3681289,0.486020051 C12.2980452,0.60025087 12.3374424,0.738667649 12.4618559,0.815170861 L14.4074751,2.01113203 C13.8950627,2.05909295 13.3922569,2.14887068 12.9075196,2.27917067 C12.0715175,2.50387188 11.3140361,2.84015312 10.6561054,3.27864414 C9.99690548,3.7179982 9.47070528,4.23792413 9.09213878,4.82393503 C8.74007768,5.36890997 8.73405484,5.38012961 8.44712479,6.02762254 C8.41952434,6.08986487 8.43040026,6.15851844 8.47696511,6.21591127 C8.53594892,6.28863351 8.64851589,6.33805339 8.76379561,6.34187546 C8.76862381,6.34203985 8.77340225,6.34212206 8.77818069,6.34212206 C8.92449536,6.34210151 9.04574814,6.2680436 9.10433374,6.14193557 C9.37334467,5.56287016 9.37334467,5.56287016 9.7012896,5.05523242 C10.0406082,4.52996379 10.5130262,4.06342366 11.1054276,3.66859887 C11.6991232,3.27293157 12.3830615,2.96940513 13.1382532,2.76642401 C13.5870278,2.64580252 14.0532736,2.56354564 14.5285536,2.5209685 L13.1062476,4.18005869 C13.0191159,4.28173419 13.0310371,4.42126059 13.1345449,4.51183974 C13.2002235,4.56925312 13.2925568,4.59898725 13.388026,4.59350071 C13.4834453,4.58793198 13.5698802,4.54777962 13.6251558,4.483318 L15.3251585,2.50025529 C15.4131863,2.39757288 15.4486263,2.27333479 15.4250079,2.15037073 Z" id="路径" stroke="#29CCB6" stroke-width="0.5" fill="#29CCB6"></path>
            <path d="M9.99326856,6.00907785 L14.4228373,6.00907785 C14.5466474,6.00907785 14.6528474,5.91221352 14.6551138,5.78843944 C14.6574163,5.66232694 14.5558931,5.55938274 14.4303023,5.55938274 L9.99326856,5.55938274 C9.86908076,5.55938274 9.76842102,5.66004248 9.76842102,5.78423029 C9.76842102,5.90841809 9.86908076,6.00907785 9.99326856,6.00907785 Z" id="路径" stroke="#0AAA94" stroke-width="0.5" fill="#4585F5"></path>
            <path d="M15.2678504,6.48915435 L4.72016173,6.48915435 C3.85099102,6.48915435 3.14299106,7.19247749 3.13541819,8.0598854 L2.27356852,15.1812211 L2.27194961,15.194676 L2.27194961,15.2082388 C2.27194961,15.6528793 2.45609077,16.0552665 2.75202612,16.3433412 L2.7325813,16.3433412 C2.10568834,16.3433412 1.59747891,15.8351318 1.59747891,15.2082388 L1.59747891,6.05375954 C1.59747891,5.42684858 2.10568834,4.91865715 2.7325813,4.91865715 L4.19709437,4.91865715 L4.19709437,4.91685836 L5.51802878,4.91685836 C5.71253091,4.91685836 5.81968426,5.05595805 5.90818424,5.24153823 L5.90863395,5.24153823 C6.0269757,5.67324554 6.37473393,6.00907783 6.83653482,6.00907783 L7.58292077,6.00907783 C7.70710857,6.00907783 7.80776831,5.90841809 7.80776831,5.78423029 C7.80776831,5.66004248 7.70710857,5.55938274 7.58292077,5.55938274 L6.83653482,5.55938274 C6.48865069,5.55332085 6.37757599,5.14283915 6.35940831,5.0744855 C6.2668071,4.72588186 6.02605833,4.46714529 5.67252603,4.46714529 L3.82546633,4.46714529 L3.82546633,4.46894408 L2.73256332,4.46894408 C1.85731274,4.46894408 1.14776582,5.17847302 1.14776582,6.05374158 L1.14776582,15.2082208 C1.14776582,16.0834894 1.85731274,16.7930183 2.73256332,16.7930183 L3.85674711,16.7930183 L4.19709437,16.7930183 L14.4044538,16.7930183 C15.2736245,16.7930183 15.9816065,16.0896952 15.9891973,15.2222873 L16.851047,8.10095157 L16.8526659,8.0874967 L16.8526659,8.07393389 C16.8526479,7.19868329 16.143119,6.48915435 15.2678504,6.48915435 Z M15.3623193,15.1127525 L15.3607455,15.1258325 L15.3607455,15.1390174 C15.3607455,15.7474831 14.8657332,16.2424953 14.2572676,16.2424953 L4.33429041,16.2424953 L4.0034254,16.2424953 C3.39915656,16.2424953 2.90676733,15.7542854 2.9,15.1515903 L3.73771569,8.22974282 L3.7392895,8.21666281 L3.7392895,8.20347787 C3.7392895,7.59501223 4.23431921,7.1 4.84276737,7.1 L15.0965921,7.1 C15.7008609,7.1 16.1932327,7.58820992 16.2,8.19090496 L15.3623193,15.1127525 Z" id="形状" stroke="#0AAA94" stroke-width="0.6" fill="#0AAA94"></path>
        </g>
    </g>
</svg>