<?xml version="1.0" encoding="UTF-8"?>
<svg width="24px" height="24px" viewBox="0 0 24 24" version="1.1" xmlns="http://www.w3.org/2000/svg" xmlns:xlink="http://www.w3.org/1999/xlink">
    <!-- Generator: Sketch 54.1 (76490) - https://sketchapp.com -->
    
    <desc>Created with Sketch.</desc>
    <g id="恢复" stroke="none" stroke-width="1" fill="none" fill-rule="evenodd">
        <g id="撤销" transform="translate(12.000000, 12.000000) scale(-1, 1) translate(-12.000000, -12.000000) translate(2.000000, 2.000000)" fill-rule="nonzero">
            <rect id="矩形" fill="#000000" opacity="0" x="0" y="0" width="20" height="20"></rect>
            <path d="M17.1914062,6.96875 C17.6035156,7.93164062 17.8125,8.94140625 17.8125,10 C17.8125,11.0566406 17.6035156,12.0683594 17.1914062,13.03125 C16.7792969,13.9941406 16.2226562,14.8242188 15.5214844,15.5234375 C14.8203125,16.2226562 13.9921875,16.7773438 13.0292969,17.1933594 C12.0683594,17.6035156 11.0585938,17.8125 10,17.8125 C8.83398438,17.8125 7.7265625,17.5664062 6.67382812,17.0742188 C5.62304688,16.5820312 4.7265625,15.890625 3.98828125,14.9941406 C3.94140625,14.9257812 3.91796875,14.8515625 3.921875,14.7636719 C3.92578125,14.6777344 3.953125,14.6113281 4.0078125,14.5546875 L5.40039062,13.1503906 C5.46875,13.0878906 5.55078125,13.0585938 5.65625,13.0585938 C5.765625,13.0722656 5.84375,13.1113281 5.890625,13.1796875 C6.38476563,13.8242188 6.9921875,14.3222656 7.7109375,14.6738281 C8.4296875,15.0253906 9.19335938,15.2011719 10,15.2011719 C10.7050781,15.2011719 11.3769531,15.0644531 12.0195312,14.7890625 C12.6621094,14.515625 13.2148438,14.1425781 13.6816406,13.6738281 C14.1503906,13.2050781 14.5195312,12.6503906 14.796875,12.0117188 C15.0703125,11.3691406 15.2089844,10.6972656 15.2089844,9.9921875 C15.2089844,9.28710938 15.0722656,8.61523438 14.796875,7.97265625 C14.5195312,7.33007813 14.1503906,6.77734375 13.6816406,6.31054688 C13.2128906,5.84179688 12.6582031,5.47265625 12.0195312,5.1953125 C11.3769531,4.921875 10.7050781,4.78320312 10,4.78320312 C9.33398438,4.78320312 8.69726562,4.90234375 8.08789062,5.14453125 C7.47851563,5.38671875 6.93554688,5.72851562 6.45898438,6.17773437 L7.8515625,7.58203125 C8.0625,7.78515625 8.109375,8.01757812 7.99414063,8.28320312 C7.87890625,8.5546875 7.6796875,8.68945312 7.39257813,8.68945312 L2.83789062,8.68945312 C2.6640625,8.68945312 2.5078125,8.625 2.38085938,8.49609375 C2.25390625,8.3671875 2.1875,8.21484375 2.1875,8.0390625 L2.1875,3.48828125 C2.1875,3.203125 2.32226562,3.00390625 2.59375,2.88671875 C2.859375,2.77148437 3.09179688,2.81835937 3.29492188,3.02929687 L4.6171875,4.34179687 C5.34179688,3.65625 6.171875,3.12695312 7.10546875,2.75195312 C8.0390625,2.375 9.00195313,2.18554687 10,2.18554687 C11.0566406,2.18554687 12.0683594,2.39453125 13.03125,2.80664062 C13.9941406,3.21875 14.8242188,3.77539062 15.5234375,4.4765625 C16.2226562,5.17382812 16.7773438,6.00390625 17.1914062,6.96875 Z" id="路径" fill="#4585F5"></path>
        </g>
    </g>
</svg>