<?xml version="1.0" encoding="UTF-8"?>
<svg width="24px" height="24px" viewBox="0 0 24 24" version="1.1" xmlns="http://www.w3.org/2000/svg" xmlns:xlink="http://www.w3.org/1999/xlink">
    <!-- Generator: Sketch 54.1 (76490) - https://sketchapp.com -->
    
    <desc>Created with Sketch.</desc>
    <g id="无序列表" stroke="none" stroke-width="1" fill="none" fill-rule="evenodd">
        <g>
            <rect id="矩形" x="0" y="0" width="24" height="24"></rect>
            <path d="M9.43585516,4 L20.3273023,4 C21.1475542,4 21.8124997,4.6649455 21.8124997,5.48519734 C21.8124997,6.30544919 21.1475542,6.97039469 20.3273023,6.97039469 L9.43585516,6.97039469 C8.61560331,6.97039469 7.95065781,6.30544919 7.95065781,5.48519734 C7.95065781,4.6649455 8.61560331,4 9.43585516,4 Z M9.43585516,10.4358552 L20.3273023,10.4358552 C21.1475542,10.4358552 21.8124997,11.1008007 21.8124997,11.9210525 C21.8124997,12.7413043 21.1475542,13.4062498 20.3273023,13.4062498 L9.43585516,13.4062498 C8.61560331,13.4062498 7.95065781,12.7413043 7.95065781,11.9210525 C7.95065781,11.1008007 8.61560331,10.4358552 9.43585516,10.4358552 Z M9.43585516,16.8717103 L20.3273023,16.8717103 C21.1475542,16.8717103 21.8124997,17.5366558 21.8124997,18.3569077 C21.8124997,19.1771595 21.1475542,19.842105 20.3273023,19.842105 L9.43585516,19.842105 C8.61560331,19.842105 7.95065781,19.1771595 7.95065781,18.3569077 C7.95065781,17.5366558 8.61560331,16.8717103 9.43585516,16.8717103 Z" id="形状结合" fill="#29CCB6"></path>
            <rect id="矩形复制-4" fill="#4585F5" x="3" y="4" width="2.97039469" height="2.97039469" rx="1.48519734"></rect>
            <rect id="矩形复制-6" fill="#4585F5" x="3" y="10.4358552" width="2.97039469" height="2.97039469" rx="1.48519734"></rect>
            <rect id="矩形复制-8" fill="#4585F5" x="3" y="16.8717103" width="2.97039469" height="2.97039469" rx="1.48519734"></rect>
        </g>
    </g>
</svg>