<?xml version="1.0" encoding="UTF-8"?>
<svg width="19px" height="19px" viewBox="0 0 19 19" version="1.1" xmlns="http://www.w3.org/2000/svg" xmlns:xlink="http://www.w3.org/1999/xlink">
    <!-- Generator: Sketch 54.1 (76490) - https://sketchapp.com -->
    
    <desc>Created with Sketch.</desc>
    <g id="用户-灰" stroke="none" stroke-width="1" fill="none" fill-rule="evenodd">
        <g id="用户" fill-rule="nonzero">
            <rect id="矩形" fill="#000000" opacity="0" x="0" y="0" width="19" height="19"></rect>
            <path d="M17.0772,15.852175 C16.4103,13.2658 14.55685,11.2556 12.217475,10.36355 C13.305225,9.53895 14.0125,8.236975 14.0125,6.7697 C14.0125,4.28165 11.98805,2.2572 9.5,2.2572 C7.01195,2.2572 4.9875,4.28165 4.9875,6.7697 C4.9875,7.226175 5.0559,7.677425 5.190325,8.1111 C5.46848918,9.01017962 6.02130567,9.79953779 6.771125,10.3683 C4.89725,11.0903 3.3136,12.536675 2.42535,14.447125 C2.21635,14.897425 2.046775,15.37005 1.922325,15.852175 C1.85230496,16.1007599 1.92228252,16.3677731 2.10522418,16.5500629 C2.28816583,16.7323528 2.55542711,16.8013769 2.80376048,16.7304701 C3.05209385,16.6595632 3.242616,16.4598278 3.301725,16.208425 C3.4048,15.8099 3.54445,15.41945 3.71735,15.048 C4.47735,13.413525 5.8539,12.196575 7.470325,11.632275 L7.9116,13.0169 C7.99134992,13.2669055 8.2586695,13.4049249 8.508675,13.325175 C8.75868049,13.2454251 8.89669991,12.9781055 8.81695,12.7281 L8.389925,11.388125 C8.75579727,11.3191216 9.12720547,11.2836661 9.499525,11.2822 C9.875725,11.2822 10.24575,11.317825 10.60675,11.383375 L9.45345,14.72595 L9.3537,14.411975 C9.2670035,14.1713773 9.0055257,14.0424543 8.76188052,14.1201754 C8.51823533,14.1978964 8.37971122,14.454417 8.44835,14.700775 L8.9832,16.378475 C9.045425,16.573225 9.225925,16.7067 9.430175,16.709075 L9.435875,16.709075 C9.63846233,16.7090001 9.81870654,16.580445 9.88475,16.388925 L11.527775,11.6261 C13.530375,12.3196 15.130175,14.012025 15.69685,16.208425 C15.7439068,16.3914582 15.8618438,16.5482527 16.0246474,16.6442239 C16.1874509,16.7401952 16.3817456,16.7674584 16.564675,16.72 C16.7478146,16.6730376 16.9047571,16.5551655 17.000901,16.3923713 C17.0970449,16.2295772 17.1244952,16.0352289 17.0772,15.852175 L17.0772,15.852175 Z M6.5512,7.688825 C6.26058747,6.7513622 6.43241768,5.73159778 7.01418616,4.9411311 C7.59595464,4.15066442 8.5185263,3.68343146 9.5,3.6822 C11.2024,3.6822 12.5875,5.0673 12.5875,6.7697 C12.5875,8.4721 11.2024,9.8572 9.5,9.8572 C8.14689322,9.86238501 6.94959615,8.98196279 6.5512,7.688825 Z" id="形状" fill="#A8B7C4"></path>
        </g>
    </g>
</svg>