<?xml version="1.0" encoding="UTF-8"?>
<svg width="24px" height="24px" viewBox="0 0 24 24" version="1.1" xmlns="http://www.w3.org/2000/svg" xmlns:xlink="http://www.w3.org/1999/xlink">
    <!-- Generator: Sketch 54.1 (76490) - https://sketchapp.com -->
    
    <desc>Created with Sketch.</desc>
    <g id="用户" stroke="none" stroke-width="1" fill="none" fill-rule="evenodd">
        <g id="用户反馈1" fill-rule="nonzero">
            <rect id="矩形" fill="#000000" opacity="0" x="0" y="0" width="24" height="24"></rect>
            <path d="M21.4722656,21.2284688 C21.2928281,19.8227109 20.8137188,18.5043281 20.04825,17.3098594 C19.3891172,16.2813281 18.5221172,15.3743672 17.5244063,14.6655938 C18.9002812,13.2354375 19.6564453,11.3615391 19.6564453,9.37125 C19.6564453,7.33028906 18.8616563,5.41150781 17.4184922,3.96834375 C15.9753281,2.52517969 14.0565234,1.73039063 12.0155859,1.73039063 C9.97464844,1.73039063 8.05586719,2.52517969 6.61270313,3.96834375 C5.16953906,5.41150781 4.37475,7.33028906 4.37475,9.37125 C4.37475,11.3614219 5.13079688,13.2352031 6.50653125,14.6653359 C4.33523438,16.2032578 2.90592188,18.5630625 2.56197656,21.2046797 C2.53692188,21.3972188 2.67267188,21.5736094 2.86521094,21.5986875 C3.05765625,21.6238359 3.23414063,21.4879922 3.25921875,21.2954531 C3.58371094,18.8033672 4.95175781,16.5815391 7.02700781,15.1593984 C8.19717188,16.1710547 9.62695312,16.7942109 11.1575391,16.9641797 L11.1630938,16.9647891 C11.2145625,16.9704609 11.266125,16.9757109 11.3178047,16.9803516 C11.3297578,16.9814297 11.3417578,16.9823906 11.3537344,16.9834219 C11.3975156,16.9871484 11.4413203,16.9907109 11.4852422,16.9936875 C11.5065234,16.9951641 11.527875,16.9962891 11.5492031,16.9976016 C11.5854375,16.9997578 11.6216484,17.0020078 11.6579531,17.0036719 C11.6902266,17.0051719 11.7225469,17.0061328 11.7548906,17.0072109 C11.7815625,17.0081016 11.8081875,17.0092734 11.8349063,17.0098828 C11.8950469,17.0112891 11.9552813,17.0120859 12.0156094,17.0120859 C12.0759375,17.0120859 12.1361484,17.0112891 12.1963125,17.0098828 C12.2230547,17.0092734 12.2496797,17.0081016 12.276375,17.0072109 C12.3086953,17.0061094 12.3410156,17.0051719 12.3732656,17.0036719 C12.4095938,17.0020078 12.4458281,16.9997812 12.4820859,16.9976016 C12.5033906,16.9963125 12.5246953,16.9951641 12.5459766,16.9937109 C12.5899219,16.9907109 12.6337734,16.9871719 12.6775547,16.9834219 C12.6895078,16.9823906 12.7014609,16.9814297 12.7133906,16.9803516 C12.7651172,16.9757109 12.8167031,16.9704609 12.8681953,16.9647891 L12.8736328,16.9641797 C14.4042656,16.7942109 15.8340469,16.1710547 17.0042344,15.1593984 C19.0864688,16.5862031 20.4555469,18.816 20.7748828,21.3174844 C20.7975234,21.4949766 20.9488359,21.6245859 21.1231641,21.6245859 C21.138,21.6245859 21.153,21.6236484 21.1681172,21.6217031 C21.3606797,21.5971406 21.4968516,21.4210781 21.4722656,21.2284687 L21.4722656,21.2284688 Z M12.0155859,2.43351563 C15.8410547,2.43351563 18.9533203,5.54578125 18.9533203,9.37125 C18.9533203,12.6564375 16.6580859,15.4155469 13.5870234,16.1294062 C13.5795,16.1311406 13.5719297,16.1328047 13.5643828,16.1345156 C13.5191016,16.144875 13.4736328,16.1548125 13.4280234,16.1642812 C13.4131172,16.167375 13.3981875,16.1703047 13.3832812,16.1733047 C13.3447734,16.1810391 13.3061484,16.1884687 13.2674063,16.1955703 C13.2477188,16.1991562 13.2279844,16.202625 13.20825,16.2060469 C13.1192753,16.2215412 13.0299996,16.2352549 12.9404766,16.2471797 C12.9158203,16.2504844 12.8911406,16.2537187 12.8664141,16.2567656 C12.8355703,16.2605625 12.8046094,16.2640312 12.773625,16.2674062 C12.7481016,16.2701953 12.7226016,16.2730078 12.6970078,16.2754922 C12.6660938,16.2785156 12.6350625,16.2811641 12.6040313,16.2837656 C12.5785547,16.2859219 12.5531016,16.2881719 12.5275547,16.2900469 C12.4951641,16.2924141 12.4626563,16.2943125 12.4301484,16.2962344 C12.4060313,16.2976641 12.3819375,16.2992812 12.3577969,16.3004766 C12.3211875,16.3022578 12.2844141,16.3034531 12.2476406,16.3046719 C12.2274609,16.3053516 12.2073516,16.3063125 12.1871484,16.3068047 C12.1301016,16.3081875 12.0729141,16.3089844 12.0155391,16.3089844 C11.9581641,16.3089844 11.9009766,16.3081875 11.8439297,16.3068047 C11.8237266,16.3063125 11.8035938,16.3053516 11.7834141,16.3046719 C11.7466641,16.3034531 11.7098906,16.3022578 11.6732813,16.3004766 C11.6491172,16.2993047 11.6250234,16.2976641 11.6008828,16.2962344 C11.5683984,16.2943125 11.5358906,16.2924141 11.5035234,16.2900469 C11.4779766,16.2881719 11.4525,16.2859219 11.427,16.2837656 C11.3959922,16.2811406 11.3649844,16.2785156 11.3340938,16.2754922 C11.3085,16.2729844 11.2829531,16.2701719 11.2574297,16.2673828 C11.2264922,16.2640078 11.1955547,16.2605391 11.1647344,16.2567656 C11.1399844,16.2537187 11.1152813,16.2504844 11.0906016,16.2471797 C11.0011121,16.2353104 10.9118746,16.2216123 10.8229453,16.2060937 C10.7644652,16.1960168 10.7061312,16.1851094 10.6479609,16.173375 C10.6329844,16.170375 10.6179844,16.1674219 10.6030313,16.1643281 C10.5575572,16.1548814 10.5121798,16.1449746 10.4669063,16.1346094 C10.4592891,16.132875 10.4516484,16.1312109 10.4440313,16.1294531 C7.37301562,15.4155469 5.07780469,12.6564609 5.07780469,9.37132031 C5.07785156,5.54578125 8.19009375,2.43351563 12.0155859,2.43351563 Z" id="形状" stroke="#4585F5" fill="#4585F5"></path>
            <path d="M8.96149219,11.9438203 L15.0902344,11.9438203 C15.2843906,11.9438203 15.4417969,11.7864141 15.4417969,11.5922578 C15.4417969,11.3981016 15.2843906,11.2406953 15.0902344,11.2406953 L8.96149219,11.2406953 C8.76733594,11.2406953 8.60992969,11.3981016 8.60992969,11.5922578 C8.60992969,11.7864141 8.76733594,11.9438203 8.96149219,11.9438203 Z M8.96149219,8.94841406 L12.4417969,8.94841406 C12.6359531,8.94841406 12.7933594,8.79100781 12.7933594,8.59685156 C12.7933594,8.40269531 12.6359531,8.24528906 12.4417969,8.24528906 L8.96149219,8.24528906 C8.76733594,8.24528906 8.60992969,8.40269531 8.60992969,8.59685156 C8.60992969,8.79100781 8.76733594,8.94841406 8.96149219,8.94841406 Z" id="形状" stroke="#4585F5" fill="#4585F5"></path>
        </g>
    </g>
</svg>