<?xml version="1.0" encoding="utf-8"?>
<!-- Generator: Adobe Illustrator 22.0.0, SVG Export Plug-In . SVG Version: 6.00 Build 0)  -->
<svg version="1.1" id="图层_1" xmlns="http://www.w3.org/2000/svg" xmlns:xlink="http://www.w3.org/1999/xlink" x="0px" y="0px"
	 viewBox="0 0 24 24" style="enable-background:new 0 0 24 24;" xml:space="preserve">
<style type="text/css">
	.st0{fill:#FFFFFF;fill-opacity:0;}
	.st1{fill:#FFFFFF;}
</style>

<desc>Created with Sketch.</desc>
<g id="预览">
	<path class="st1" d="M15.7,2.3c-0.4,0-0.7-0.3-0.7-0.7S15.4,1,15.7,1h3.9c1.5,0,2.8,1.2,2.8,2.8v3.9c0,0.2-0.1,0.5-0.3,0.6
		c-0.2,0.1-0.5,0.1-0.7,0c-0.2-0.1-0.3-0.3-0.3-0.6V3.8c0-0.8-0.6-1.4-1.4-1.4H15.7z"/>
	<path class="st1" d="M21.1,15.4c0-0.2,0.1-0.5,0.3-0.6c0.2-0.1,0.5-0.1,0.7,0c0.2,0.1,0.3,0.3,0.3,0.6v4.2c0,1.5-1.2,2.8-2.8,2.8
		H17c-0.2,0-0.5-0.1-0.6-0.3c-0.1-0.2-0.1-0.5,0-0.7c0.1-0.2,0.3-0.3,0.6-0.3h2.6c0.8,0,1.4-0.6,1.4-1.4V15.4L21.1,15.4z"/>
	<path class="st1" d="M8,21.1c0.2,0,0.5,0.1,0.6,0.3c0.1,0.2,0.1,0.5,0,0.7c-0.1,0.2-0.3,0.3-0.6,0.3H3.8c-1.5,0-2.8-1.2-2.8-2.8
		v-3.9c0-0.4,0.3-0.7,0.7-0.7s0.7,0.3,0.7,0.7v3.9c0,0.8,0.6,1.4,1.4,1.4H8z"/>
	<path class="st1" d="M2.3,7.7c0,0.4-0.3,0.7-0.7,0.7S1,8.1,1,7.7V3.8C1,2.2,2.2,1,3.8,1h3.9c0.4,0,0.7,0.3,0.7,0.7S8.1,2.3,7.7,2.3
		H3.8C3,2.3,2.3,3,2.3,3.8V7.7z"/>
</g>
<path class="st1" d="M16.6,5.4l1.3,1.3c0.4,0.4,0.4,0.9,0,1.3l-7.5,7.5c-0.4,0.4-0.9,0.4-1.3,0l-0.9-0.9c-0.3-0.3-0.4-0.9,0-1.3
	l7.2-7.8C15.7,5,16.3,5,16.6,5.4z"/>
<path class="st1" d="M5.7,18l3.1-1.2c0.4-0.2,0.5-0.6,0.2-0.9l-1.1-1.1C7.6,14.5,7.1,14.6,7,15L5.7,18z"/>
</svg>
