<?xml version="1.0" encoding="UTF-8"?>
<svg width="24px" height="24px" viewBox="0 0 24 24" version="1.1" xmlns="http://www.w3.org/2000/svg" xmlns:xlink="http://www.w3.org/1999/xlink">
    <!-- Generator: Sketch 54.1 (76490) - https://sketchapp.com -->
    
    <desc>Created with Sketch.</desc>
    <g id="表格/删除/表格" stroke="none" stroke-width="1" fill="none" fill-rule="evenodd">
        <g id="表格" fill-rule="nonzero">
            <rect id="矩形" fill="#000000" opacity="0" x="0" y="0" width="24" height="24"></rect>
            <path d="M9.85,21.997301 L4.85711437,21.997301 C3.27918219,21.997301 2,20.7181188 2,19.1401866 L2,4.85711437 C2,3.27918219 3.27918219,2 4.85711437,2 L19.1401866,2 C20.7181188,2 21.997301,3.27918219 21.997301,4.85711437 L21.997301,9.14419706 L21.997301,9.15 L20.5700743,9.15 L20.5700743,9.14419706 L15.570749,9.14419706 L15.570749,9.15 L14.1435223,9.15 L14.1435223,9.14419706 L9.8537787,9.14419706 L9.8537787,9.15 L9.85,9.15 L9.85,21.997301 Z M3.84652496,3.84652496 C3.57729966,4.11436416 3.42633026,4.47872301 3.42722673,4.85848517 L3.42722276,7.71697033 L20.5700787,7.71697033 L20.5700743,4.85848517 C20.5710163,4.47951168 20.4212457,4.11571266 20.1537621,3.847246 C19.8862786,3.57877935 19.5230315,3.42767503 19.1440571,3.42722673 L4.85848517,3.42722673 C4.47872301,3.42633026 4.11436416,3.57729966 3.84652496,3.84652496 Z M8.42655197,14.1435223 L8.42655197,9.14419706 L3.42722673,9.14419706 L3.42722673,14.1435223 L8.42655197,14.1435223 Z M3.84652496,20.1531951 C4.114605,20.4217693 4.4790175,20.5718898 4.85848517,20.5700743 L8.42655197,20.5700906 L8.42655197,15.570749 L3.42722343,15.570749 L3.42722673,19.1440571 C3.42640982,19.5229752 3.57742489,19.8864278 3.84652496,20.1531951 Z" id="形状结合" fill="#4585F5"></path>
            <path d="M17.9783054,16.9998359 L21.7972994,13.1814847 C22.0675106,12.9116222 22.0675106,12.4735345 21.7976369,12.2033344 C21.5274382,11.9331219 21.0893528,11.9331219 20.8191541,12.2033344 L17.0001476,16.0216856 L13.1818161,12.2026594 C12.911605,11.9324469 12.4738821,11.9324469 12.2036709,12.2026594 C11.9334722,12.472522 11.9334722,12.9105972 12.2033334,13.1808097 L16.0220024,16.9998359 L12.2026584,20.8185246 C11.9324472,21.0883997 11.9324472,21.5264624 12.2026584,21.7966624 C12.3377577,21.9317875 12.5147444,21.999325 12.6917185,21.999325 C12.8687052,21.999325 13.0456918,21.9317875 13.1807912,21.7966624 L16.9997976,17.9783112 L20.8184791,21.7973499 C20.953591,21.9324625 21.1305651,22 21.3075518,22 C21.4845384,22 21.6615126,21.9324625 21.7966119,21.7973499 C22.0668356,21.5274749 22.0668356,21.0893997 21.7969619,20.8191996 L17.9783054,16.9998359 Z" id="路径" stroke="#29CCB6" stroke-width="0.5" fill="#29CCB6"></path>
        </g>
    </g>
</svg>