<?xml version="1.0" encoding="UTF-8"?>
<svg width="15px" height="15px" viewBox="0 0 18 18" version="1.1" xmlns="http://www.w3.org/2000/svg" xmlns:xlink="http://www.w3.org/1999/xlink">
    <!-- Generator: Sketch 54.1 (76490) - https://sketchapp.com -->
    <title>回复</title>
    <desc>Created with Sketch.</desc>
    <g id="回复" stroke="none" stroke-width="1" fill="none" fill-rule="evenodd">
        <g fill-rule="nonzero">
            <rect id="矩形" fill="#000000" opacity="0" x="0" y="0" width="18" height="18"></rect>
            <path d="M8.98769531,16.2738281 L7.1859375,13.3365234 L3.37851562,13.3365234 C2.24472656,13.3365234 1.321875,12.4136719 1.321875,11.2798828 L1.321875,3.7828125 C1.321875,2.64902344 2.24472656,1.72617187 3.37851562,1.72617187 L14.6232422,1.72617187 C15.7570313,1.72617187 16.6798828,2.64902344 16.6798828,3.7828125 L16.6798828,11.278125 C16.6798828,12.4119141 15.7570313,13.3347656 14.6232422,13.3347656 L10.9230469,13.3347656 L8.98769531,16.2738281 Z M3.37851562,2.56113281 C2.70527344,2.56113281 2.15683594,3.10957031 2.15683594,3.7828125 L2.15683594,11.278125 C2.15683594,11.953125 2.70527344,12.5015625 3.37851562,12.5015625 L7.65175781,12.5015625 L9.01230469,14.7181641 L10.4730469,12.5015625 L14.6214844,12.5015625 C15.2947266,12.5015625 15.8431641,11.953125 15.8431641,11.278125 L15.8431641,3.7828125 C15.8431641,3.10957031 15.2947266,2.56113281 14.6214844,2.56113281 L3.37851562,2.56113281 Z" id="形状" stroke="#3672FC" stroke-width="0.3" fill="#3672FC"></path>
            <path d="M4.07988281,7.64824219 C4.07988281,8.23073001 4.55208249,8.70292969 5.13457031,8.70292969 C5.71705813,8.70292969 6.18925781,8.23073001 6.18925781,7.64824219 C6.18925781,7.06575437 5.71705813,6.59355469 5.13457031,6.59355469 C4.55208249,6.59355469 4.07988281,7.06575437 4.07988281,7.64824219 L4.07988281,7.64824219 Z" id="路径" stroke="#3672FC" stroke-width="0.3" fill="#3672FC"></path>
            <path d="M7.9453125,7.64824219 C7.9453125,8.23073001 8.41751218,8.70292969 9,8.70292969 C9.58248782,8.70292969 10.0546875,8.23073001 10.0546875,7.64824219 C10.0546875,7.06575437 9.58248782,6.59355469 9,6.59355469 C8.41751218,6.59355469 7.9453125,7.06575437 7.9453125,7.64824219 Z" id="路径" stroke="#3672FC" stroke-width="0.3" fill="#3672FC"></path>
            <path d="M11.8107422,7.64824219 C11.8107422,8.23073001 12.2829419,8.70292969 12.8654297,8.70292969 C13.4479175,8.70292969 13.9201172,8.23073001 13.9201172,7.64824219 C13.9201172,7.06575437 13.4479175,6.59355469 12.8654297,6.59355469 C12.2829419,6.59355469 11.8107422,7.06575437 11.8107422,7.64824219 Z" id="路径" stroke="#3672FC" stroke-width="0.3" fill="#3672FC"></path>
        </g>
    </g>
</svg>