<?xml version="1.0" encoding="UTF-8"?>
<svg width="24px" height="24px" viewBox="0 0 24 24" version="1.1" xmlns="http://www.w3.org/2000/svg" xmlns:xlink="http://www.w3.org/1999/xlink">
    <!-- Generator: Sketch 54.1 (76490) - https://sketchapp.com -->
    <title>斜体</title>
    <desc>Created with Sketch.</desc>
    <g id="斜体" stroke="none" stroke-width="1" fill="none" fill-rule="evenodd">
        <g>
            <rect id="矩形" fill="#000000" fill-rule="nonzero" opacity="0" x="0" y="0" width="24" height="24"></rect>
            <path d="M17.1153846,4 L11.2307692,4 C10.86966,4 10.5769231,4.29273689 10.5769231,4.65384615 C10.5769231,5.01495541 10.86966,5.30769231 11.2307692,5.30769231 L13.1988462,5.30769231 L8.49246154,19.6923077 L6.65384615,19.6923077 C6.29273689,19.6923077 6,19.9850446 6,20.3461538 C6,20.7072631 6.29273689,21 6.65384615,21 L12.5384615,21 C12.8995708,21 13.1923077,20.7072631 13.1923077,20.3461538 C13.1923077,19.9850446 12.8995708,19.6923077 12.5384615,19.6923077 L10.6233462,19.6923077 L15.3336538,5.30769231 L17.1153846,5.30769231 C17.4764939,5.30769231 17.7692308,5.01495541 17.7692308,4.65384615 C17.7692308,4.29273689 17.4764939,4 17.1153846,4 Z" id="路径" fill="#4585F5" fill-rule="nonzero"></path>
            <rect id="矩形" fill="#4585F5" x="10" y="4" width="8" height="2" rx="1"></rect>
            <rect id="矩形复制" fill="#4585F5" x="6" y="19" width="8" height="2" rx="1"></rect>
        </g>
    </g>
</svg>