<?xml version="1.0" encoding="UTF-8"?>
<svg width="24px" height="24px" viewBox="0 0 24 24" version="1.1" xmlns="http://www.w3.org/2000/svg" xmlns:xlink="http://www.w3.org/1999/xlink">
    <!-- Generator: Sketch 54.1 (76490) - https://sketchapp.com -->
    <title>H2</title>
    <desc>Created with Sketch.</desc>
    <g id="H2" stroke="none" stroke-width="1" fill="none" fill-rule="evenodd">
        <g>
            <rect id="矩形" x="0" y="0" width="24" height="24"></rect>
            <g id="编组" transform="translate(2.000000, 4.000000)">
                <path d="M2.63157895,6.63157895 L10.0092879,6.63157895 L10.0092879,1.25 C10.0092879,0.559644063 10.568932,3.48860933e-16 11.2592879,2.22044605e-16 L11.3908668,2.22044605e-16 C12.0812228,9.52282766e-17 12.6408668,0.559644063 12.6408668,1.25 L12.6408668,15.3243305 C12.6408668,16.0146865 12.0812228,16.5743305 11.3908668,16.5743305 L11.2592879,16.5743305 C10.568932,16.5743305 10.0092879,16.0146865 10.0092879,15.3243305 L10.0092879,9.26315789 L2.63157895,9.26315789 L2.63157895,15.3243305 C2.63157895,16.0146865 2.07193488,16.5743305 1.38157895,16.5743305 L1.25,16.5743305 C0.559644063,16.5743305 1.00428309e-15,16.0146865 2.5243549e-29,15.3243305 L2.5243549e-29,1.25 C-8.45442189e-17,0.559644063 0.559644063,1.26816328e-16 1.25,0 L1.38157895,0 C2.07193488,-1.26816328e-16 2.63157895,0.559644063 2.63157895,1.25 L2.63157895,6.63157895 Z" id="形状结合" fill="#4585F5"></path>
                <path d="M16.468552,14.8862559 L19.667424,14.8862559 C19.9146811,14.9168823 20.0537611,15.054699 20.0846682,15.2997101 C20.0537611,15.5753476 19.9146811,15.7284773 19.667424,15.7591037 L15.5413428,15.7591037 C15.2013643,15.7591037 15.0159243,15.621287 14.9850172,15.3456495 C14.9850172,15.2231439 15.0622839,15.0700143 15.2168195,14.8862559 L18.1375287,10.9814109 C18.5393214,10.5220151 18.7402148,10.0320002 18.7402148,9.51135162 C18.7093076,8.71506552 18.3184889,8.37100077 17.4530892,8.30974799 C16.764237,8.30974799 15.9532113,8.60431497 15.9532113,9.41225147 C15.9532113,9.87283524 15.6194549,9.87283524 15.3876526,9.87283524 C15.1558503,9.87283524 14.8215103,9.87283524 14.8215103,9.41225147 C14.8215103,7.85925823 16.3850581,7.33805102 17.6210005,7.33805102 C18.8946566,7.33805102 19.7292374,8.10253821 19.8528659,9.41947292 C19.883773,10.0626271 19.698333,10.6292068 19.2965403,11.119229 L16.468552,14.8862559 Z" id="2" stroke="#29CCB6" stroke-width="0.7" fill="#29CCB6" fill-rule="nonzero"></path>
            </g>
        </g>
    </g>
</svg>