<?xml version="1.0" encoding="UTF-8"?>
<svg width="24px" height="24px" viewBox="0 0 24 24" version="1.1" xmlns="http://www.w3.org/2000/svg" xmlns:xlink="http://www.w3.org/1999/xlink">
    <!-- Generator: Sketch 54.1 (76490) - https://sketchapp.com -->
    <title>表格</title>
    <desc>Created with Sketch.</desc>
    <g id="表格" stroke="none" stroke-width="1" fill="none" fill-rule="evenodd">
        <g>
            <rect id="矩形" fill="#000000" fill-rule="nonzero" opacity="0" x="0" y="0" width="24" height="24"></rect>
            <path d="M21.997301,9.14419706 L21.997301,4.85711437 C21.997301,3.27918219 20.7181188,2 19.1401866,2 L4.85711437,2 C3.27918219,2 2,3.27918219 2,4.85711437 L2,19.1401866 C2,20.7181188 3.27918219,21.997301 4.85711437,21.997301 L19.1401866,21.997301 C20.7181188,21.997301 21.997301,20.7181188 21.997301,19.1401866 L21.997301,9.14419706 Z M3.84652496,3.84652496 C4.11436416,3.57729966 4.47872301,3.42633026 4.85848517,3.42722673 L19.1440571,3.42722673 C19.5230315,3.42767503 19.8862786,3.57877935 20.1537621,3.847246 C20.4212457,4.11571266 20.5710163,4.47951168 20.5700743,4.85848517 L20.5700787,7.71697033 L3.42722276,7.71697033 L3.42722673,4.85848517 C3.42633026,4.47872301 3.57729966,4.11436416 3.84652496,3.84652496 Z M9.8537787,14.1435223 L9.8537787,9.14419706 L14.1435223,9.14419706 L14.1435223,14.1435223 L9.8537787,14.1435223 Z M14.1435223,15.570749 L14.1435223,20.5700743 L9.8537787,20.5700743 L9.8537787,15.570749 L14.1435223,15.570749 Z M8.42655197,14.1435223 L3.42722673,14.1435223 L3.42722673,9.14419706 L8.42655197,9.14419706 L8.42655197,14.1435223 Z M3.84652496,20.1531951 C3.57742489,19.8864278 3.42640982,19.5229752 3.42722673,19.1440571 L3.42722343,15.570749 L8.42655197,15.570749 L8.42655197,20.5700906 L4.85848517,20.5700743 C4.4790175,20.5718898 4.114605,20.4217693 3.84652496,20.1531951 Z M20.5700743,19.1440571 C20.5708039,19.5224836 20.4207976,19.8856207 20.1532092,20.1532092 C19.8856207,20.4207976 19.5224836,20.5708039 19.1440571,20.5700743 L15.570749,20.5700769 L15.570749,15.570749 L20.5700769,15.570749 L20.5700743,19.1440571 L20.5700743,19.1440571 Z M20.5700743,14.1435223 L15.570749,14.1435223 L15.570749,9.14419706 L20.5700743,9.14419706 L20.5700743,14.1435223 Z" id="形状" fill="#4585F5" fill-rule="nonzero"></path>
            <path d="M14.12,15.6 L9.86,15.6 L9.86,20.57 L8.4,20.57 L8.4,15.6 L3.4,15.6 L3.4,14.1 L8.4,14.1 L8.4,9.14 L9.86,9.14 L9.86,14.1 L14.12,14.1 L14.12,9.14 L15.58,9.14 L15.58,14.1 L20.58,14.1 L20.58,15.6 L15.58,15.6 L15.58,20.57 L14.12,20.57 L14.12,15.6 Z" id="形状结合" fill="#29CCB6"></path>
        </g>
    </g>
</svg>