<?xml version="1.0" encoding="UTF-8"?>
<svg width="20px" height="20px" viewBox="0 0 20 20" version="1.1" xmlns="http://www.w3.org/2000/svg" xmlns:xlink="http://www.w3.org/1999/xlink">
    <!-- Generator: Sketch 54.1 (76490) - https://sketchapp.com -->
    <title>路径</title>
    <desc>Created with Sketch.</desc>
    <g id="页面1" stroke="none" stroke-width="1" fill="none" fill-rule="evenodd">
        <g id="UW-Notes-1新建" transform="translate(-1043.000000, -211.000000)" fill="#4585F5" fill-rule="nonzero">
            <g id="输入区" transform="translate(31.000000, 130.000000)">
                <g id="附件列表" transform="translate(1010.000000, 77.000000)">
                    <g id="tit">
                        <g id="附件" transform="translate(0.000000, 2.000000)">
                            <path d="M11.8241283,21.237732 C11.5323279,21.2365069 11.2698022,21.0601768 11.1583007,20.7905171 C11.0467991,20.5208574 11.1081322,20.210615 11.3138558,20.0036688 L19.0367033,12.2772024 C21.0573819,10.2575231 21.058192,6.9821659 19.0385127,4.96148727 C17.0188335,2.94080865 13.7434762,2.93999852 11.7227976,4.9596778 L4.51022264,12.1722527 C3.095148,13.5873274 3.09514801,15.8816167 4.51022265,17.2966913 C5.9252973,18.711766 8.21958661,18.711766 9.63466125,17.2966913 L16.4093428,10.5328667 C17.1580834,9.74137307 17.1408263,8.49771291 16.3704126,7.72729919 C15.5999988,6.95688546 14.3563387,6.93962837 13.5648451,7.68836898 L8.13641436,13.1167997 C7.85090994,13.3764284 7.41192387,13.3664044 7.13856788,13.0940143 C6.86521188,12.8216242 6.85363396,12.3826764 7.11225044,12.0962547 L12.5406812,6.66782401 C13.9088802,5.45360766 15.9858545,5.51431968 17.2807925,6.80638216 C18.5757305,8.09844465 18.6410595,10.1752788 17.4298877,11.5461737 L10.6552062,18.3208553 C8.67450146,20.3005607 5.46395466,20.2997506 3.48424924,18.3190458 C1.50454382,16.338341 1.50535396,13.1277942 3.48605872,11.1480888 L10.6986337,3.93913283 C12.3710356,2.26673089 14.8086145,1.61358358 17.0931581,2.22572518 C19.3777016,2.83786677 21.1621332,4.6222984 21.7742748,6.90684193 C22.3864164,9.19138546 21.7332691,11.6289644 20.0608672,13.3013663 L12.3344008,21.0278327 C12.1986962,21.1624292 12.0152616,21.2378846 11.8241283,21.237732 Z" id="路径"></path>
                        </g>
                    </g>
                </g>
            </g>
        </g>
    </g>
</svg>