<?xml version="1.0" encoding="iso-8859-1"?>
<!-- Generator: Adobe Illustrator 19.0.0, SVG Export Plug-In . SVG Version: 6.00 Build 0)  -->
<svg version="1.1" id="Capa_1" xmlns="http://www.w3.org/2000/svg" xmlns:xlink="http://www.w3.org/1999/xlink" x="0px" y="0px" width="20px" height="20px"
	 viewBox="0 0 511.999 511.999" style="enable-background:new 0 0 511.999 511.999;" xml:space="preserve">
<g>
	<g>
		<path d="M384.234,71.208c-3.909-3.899-10.238-3.899-14.137,0c-3.909,3.909-3.909,10.238,0,14.147
			c3.899,3.899,10.228,3.899,14.137,0C388.133,81.446,388.133,75.117,384.234,71.208z"/>
	</g>
</g>
<g>
	<g>
		<path d="M497.34,71.205L440.792,14.66c-19.534-19.535-51.155-19.557-70.695-0.001c0,0-302.975,301.517-315.179,317.031
			c-0.007,0.009-0.015,0.018-0.022,0.027c-0.013,0.017-0.028,0.034-0.041,0.051c-18.413,23.352-31.232,51.124-37.076,80.315
			L0.194,500.041c-0.656,3.277,0.37,6.667,2.733,9.03c2.372,2.37,5.767,3.388,9.03,2.733c10.028-2.006,77.073-15.418,87.958-17.595
			c29.182-5.831,56.954-18.647,80.301-37.055c15.547-12.212,292.475-290.6,317.119-315.25
			C516.884,122.371,516.887,90.754,497.34,71.205z M320.607,92.415l21.206,21.209l-235.159,235.16
			c-7.796,7.796-20.485,7.797-28.282,0c-2.33-2.331-3.996-5.115-4.943-8.181C82.376,329.845,71.916,341.459,320.607,92.415z
			 M355.95,127.767l28.282,28.282L149.075,391.205c-7.797,7.798-20.483,7.797-28.281,0c-3.779-3.779-5.861-8.801-5.861-14.141
			c0-5.34,2.082-10.362,5.861-14.141L355.95,127.767z M22.741,489.256l6.091-30.463l24.371,24.37L22.741,489.256z M95.995,474.602
			l-19.228,3.846l-43.223-43.222l3.843-19.223c4.076-20.366,11.964-39.951,23.045-57.499c1.156,1.558,2.42,3.039,3.801,4.42
			c8.064,8.064,19.16,12.332,30.792,11.606c-0.725,11.668,3.508,22.694,11.629,30.814c8.107,8.107,19.229,12.334,30.815,11.605
			c-0.697,11.07,3.165,22.374,11.605,30.815c1.381,1.381,2.862,2.645,4.42,3.802C135.942,462.65,116.358,470.534,95.995,474.602z
			 M182.848,428.127c-3.661,3.661-7.498,7.155-11.451,10.443c-3.066-0.948-5.852-2.613-8.182-4.944
			c-7.797-7.797-7.797-20.483,0-28.281l235.158-235.158l21.21,21.205L182.848,428.127z M483.2,127.765l-21.204,21.211L412.509,99.49
			c-3.905-3.904-10.234-3.904-14.14,0c-3.904,3.904-3.904,10.235,0,14.14l49.488,49.488l-14.136,14.136l-28.276-28.269
			c-0.002-0.002-0.003-0.003-0.005-0.005l-70.693-70.702l49.49-49.481c11.718-11.726,30.683-11.729,42.416,0.003l56.548,56.546
			C494.928,97.073,494.936,116.037,483.2,127.765z"/>
	</g>
</g>
<g>
	<g>
		<path d="M228.049,491.904h-59.987c-5.521,0-9.998,4.477-9.998,9.998s4.477,9.998,9.998,9.998h59.987
			c5.521,0,9.998-4.477,9.998-9.998S233.57,491.904,228.049,491.904z"/>
	</g>
</g>
<g>
	<g>
		<path d="M348.022,491.904h-59.987c-5.521,0-9.998,4.477-9.998,9.998s4.477,9.998,9.998,9.998h59.987
			c5.521,0,9.998-4.477,9.998-9.998S353.543,491.904,348.022,491.904z"/>
	</g>
</g>
<g>
	<g>
		<path d="M467.995,491.904h-59.987c-5.521,0-9.998,4.477-9.998,9.998s4.477,9.998,9.998,9.998h59.987
			c5.521,0,9.998-4.477,9.998-9.998S473.516,491.904,467.995,491.904z"/>
	</g>
</g>
<g>
</g>
<g>
</g>
<g>
</g>
<g>
</g>
<g>
</g>
<g>
</g>
<g>
</g>
<g>
</g>
<g>
</g>
<g>
</g>
<g>
</g>
<g>
</g>
<g>
</g>
<g>
</g>
<g>
</g>
</svg>
