<?xml version="1.0" encoding="UTF-8"?>
<svg width="24px" height="24px" viewBox="0 0 24 24" version="1.1" xmlns="http://www.w3.org/2000/svg" xmlns:xlink="http://www.w3.org/1999/xlink">
    <!-- Generator: Sketch 54.1 (76490) - https://sketchapp.com -->
    <title>预览/白色</title>
    <desc>Created with Sketch.</desc>
    <g id="预览/白色" stroke="none" stroke-width="1" fill="none" fill-rule="evenodd">
        <g id="预览" fill-rule="nonzero">
            <rect id="矩形" fill="#000000" opacity="0" x="0" y="0" width="24" height="24"></rect>
            <g id="编组-2" transform="translate(1.000000, 1.000000)" fill="#FFFFFF">
                <path d="M14.7312222,1.33920201 C14.3614117,1.33920201 14.0616212,1.03941143 14.0616212,0.669601004 C14.0616212,0.299790581 14.3614117,1.25024309e-14 14.7312222,1.24344979e-14 L18.6430312,1.24344979e-14 C20.1817744,1.24344979e-14 21.4272322,1.24545787 21.4272322,2.784201 L21.4272322,6.69601007 C21.4272322,6.93523547 21.299607,7.15628887 21.0924317,7.27590158 C20.8852565,7.39551429 20.630006,7.39551429 20.4228307,7.27590158 C20.2156554,7.15628887 20.0880302,6.93523547 20.0880302,6.69601007 L20.0880302,2.784201 C20.0880302,1.98603658 19.4411956,1.33920201 18.6430312,1.33920201 L14.7312222,1.33920201 Z M20.0880302,14.4138313 C20.0880302,14.1746059 20.2156554,13.9535525 20.4228307,13.8339398 C20.630006,13.7143271 20.8852565,13.7143271 21.0924317,13.8339398 C21.299607,13.9535525 21.4272322,14.1746059 21.4272322,14.4138313 L21.4272322,18.6430312 C21.4272322,20.1817744 20.1817744,21.4272322 18.6430312,21.4272322 L15.9994465,21.4272322 C15.7602211,21.4272322 15.5391677,21.299607 15.4195549,21.0924317 C15.2999422,20.8852565 15.2999422,20.630006 15.4195549,20.4228307 C15.5391677,20.2156554 15.7602211,20.0880302 15.9994465,20.0880302 L18.6430312,20.0880302 C19.4411956,20.0880302 20.0880302,19.4411956 20.0880302,18.6430312 L20.0880302,14.4138313 L20.0880302,14.4138313 Z M7.01340094,20.0880302 C7.25262635,20.0880302 7.47367975,20.2156554 7.59329246,20.4228307 C7.71290516,20.630006 7.71290516,20.8852565 7.59329246,21.0924317 C7.47367975,21.299607 7.25262635,21.4272322 7.01340094,21.4272322 L2.784201,21.4272322 C1.24652925,21.4272322 1.39885352e-14,20.180703 1.24344979e-14,18.6430312 L1.24344979e-14,14.7312222 C1.23892092e-14,14.3614117 0.299790581,14.0616212 0.669601004,14.0616212 C1.03941143,14.0616212 1.33920201,14.3614117 1.33920201,14.7312222 L1.33920201,18.6430312 C1.33920201,19.4411956 1.98603658,20.0880302 2.784201,20.0880302 L7.01340094,20.0880302 Z M1.33920201,6.69601007 C1.33920201,7.06582049 1.03941143,7.36561107 0.669601004,7.36561107 C0.299790581,7.36561107 1.24797866e-14,7.06582049 1.24344979e-14,6.69601007 L1.24344979e-14,2.784201 C1.24344979e-14,1.24545787 1.24545787,1.24344979e-14 2.784201,1.24344979e-14 L6.69601007,1.24344979e-14 C7.06582049,1.24571422e-14 7.36561107,0.299790581 7.36561107,0.669601004 C7.36561107,1.03941143 7.06582049,1.33920201 6.69601007,1.33920201 L2.784201,1.33920201 C1.98603658,1.33920201 1.33920201,1.98603658 1.33920201,2.784201 L1.33920201,6.69601007 Z M10.7136161,14.0616212 C13.0076692,14.0616212 15.1423572,12.8710706 17.1658914,10.3788156 C15.1423572,7.88656065 13.0076692,6.69601007 10.7136161,6.69601007 C8.41956307,6.69601007 6.28487505,7.88656065 4.26134081,10.3788156 C6.28487505,12.8710705 8.41956307,14.0616212 10.7136161,14.0616212 Z M10.7136161,15.4008232 C7.98030479,15.4008232 5.48269305,14.0080531 3.22212005,11.2225129 C2.82320772,10.7307774 2.82320772,10.0268539 3.22212005,9.53511835 C5.48269305,6.74957815 7.98030479,5.35680806 10.7136161,5.35680806 C13.4469274,5.35680806 15.9445392,6.74957815 18.2051122,9.53511835 C18.6040245,10.0268539 18.6040245,10.7307774 18.2051122,11.2225129 C15.9445392,14.0080531 13.4469274,15.4008232 10.7136161,15.4008232 Z" id="形状"></path>
                <path d="M10.7136161,12.0528181 C11.6381422,12.0528181 12.3876186,11.3033417 12.3876186,10.3788156 C12.3876186,9.45428955 11.6381422,8.7048131 10.7136161,8.7048131 C9.78909006,8.7048131 9.0396136,9.45428955 9.0396136,10.3788156 C9.0396136,11.3033417 9.78909006,12.0528181 10.7136161,12.0528181 Z M10.7136161,13.3920201 C9.63704201,13.3921098 8.64220813,12.8178159 8.10389518,11.8854904 C7.56558223,10.9531648 7.56558223,9.80446641 8.10389518,8.87214084 C8.64220813,7.93981527 9.63704201,7.36552135 10.7136161,7.36561107 C12.377665,7.36574975 13.7265695,8.71476675 13.7265695,10.3788156 C13.7265695,12.0428645 12.377665,13.3918815 10.7136161,13.3920201 Z" id="形状"></path>
            </g>
        </g>
    </g>
</svg>