<?xml version="1.0" encoding="UTF-8"?>
<svg width="24px" height="24px" viewBox="0 0 24 24" version="1.1" xmlns="http://www.w3.org/2000/svg" xmlns:xlink="http://www.w3.org/1999/xlink">
    <!-- Generator: Sketch 54.1 (76490) - https://sketchapp.com -->
    <title>下划线</title>
    <desc>Created with Sketch.</desc>
    <g id="下划线" stroke="none" stroke-width="1" fill="none" fill-rule="evenodd">
        <g fill-rule="nonzero">
            <rect id="矩形" fill="#000000" opacity="0" x="0" y="0" width="24" height="24"></rect>
            <path d="M12.0354153,18.1018935 C15.6411582,18.1018935 18.5641903,15.1788614 18.5641903,11.5731186 L18.5641903,3 L16.2205275,3 L16.2205275,11.5731186 C16.2205275,13.8844922 14.346789,15.7582307 12.0354153,15.7582307 C9.72404173,15.7582307 7.85030319,13.8844922 7.85030319,11.5731186 L7.85030319,3 L5.50664038,3 L5.50664038,11.5731186 C5.50664038,15.1788614 8.4296725,18.1018935 12.0354153,18.1018935 Z" id="形状" fill="#4585F5"></path>
            <path d="M19.4012128,19.6607641 L4.66961795,19.6607641 C4.29979817,19.6607641 4,19.9605623 4,20.3303821 C4,20.7002018 4.29979817,21 4.66961795,21 L19.4012128,21 C19.7710325,21 20.0708307,20.7002018 20.0708307,20.3303821 C20.0708307,19.9605623 19.7710325,19.6607641 19.4012128,19.6607641 Z" id="路径" fill="#29CCB6"></path>
        </g>
    </g>
</svg>