<?xml version="1.0" encoding="UTF-8"?>
<svg width="24px" height="24px" viewBox="0 0 24 24" version="1.1" xmlns="http://www.w3.org/2000/svg" xmlns:xlink="http://www.w3.org/1999/xlink">
    <!-- Generator: Sketch 54.1 (76490) - https://sketchapp.com -->
    <title>删除线</title>
    <desc>Created with Sketch.</desc>
    <g id="删除线" stroke="none" stroke-width="1" fill="none" fill-rule="evenodd">
        <g>
            <rect id="矩形" fill="#000000" fill-rule="nonzero" opacity="0" x="0" y="0" width="24" height="24"></rect>
            <path d="M18,5.5 L13.5,5.5 L13.5,19 C14.0522847,19 14.5,19.4477153 14.5,20 C14.5,20.5522847 14.0522847,21 13.5,21 L11,21 C10.4477153,21 10,20.5522847 10,20 C10,19.4477153 10.4477153,19 11,19 L11,5.5 L6,5.5 L6,6 C6,6.55228475 5.55228475,7 5,7 C4.44771525,7 4,6.55228475 4,6 L4,4.5 L4,4 C4,3.44771525 4.44771525,3 5,3 L19,3 C19.5522847,3 20,3.44771525 20,4 L20,4.5 L20,6 C20,6.55228475 19.5522847,7 19,7 C18.4477153,7 18,6.55228475 18,6 L18,5.5 Z" fill="#4585F5"></path>
            <rect id="矩形" fill="#29CCB6" x="5" y="11" width="14" height="1.5" rx="0.75"></rect>
        </g>
    </g>
</svg>