<?xml version="1.0" encoding="UTF-8"?>
<svg width="16px" height="16px" viewBox="0 0 16 16" version="1.1" xmlns="http://www.w3.org/2000/svg" xmlns:xlink="http://www.w3.org/1999/xlink">
    <!-- Generator: Sketch 54.1 (76490) - https://sketchapp.com -->
    <title>展开-浅色</title>
    <desc>Created with Sketch.</desc>
    <g id="展开-浅色" stroke="none" stroke-width="1" fill="none" fill-rule="evenodd">
        <g id="展开" fill-rule="nonzero">
            <rect id="矩形" fill="#000000" opacity="0" x="0" y="0" width="16" height="16"></rect>
            <path d="M7.29778692,7.76742252 C7.58472529,7.99943621 7.97654723,8.05348061 8.31558028,7.90780782 C8.37960193,7.8883151 8.43920813,7.85652512 8.4910619,7.81421762 L14.6446172,2.33919122 C14.8611853,2.21706723 14.9985806,1.99102978 15.0072792,1.74255373 C15.0012871,1.53228255 14.9028291,1.33536654 14.7382074,1.20441012 C14.3786754,0.906089465 13.8576693,0.906089465 13.4981373,1.20441012 L7.9880146,6.16469044 L2.47789189,1.20441012 C2.1240148,0.899237303 1.60295889,0.889406057 1.23782181,1.18101256 C1.07532938,1.30734396 0.980281609,1.50163367 0.980281609,1.70745741 C0.980281609,1.91328115 1.07532938,2.10757085 1.23782181,2.23390226 L7.29778692,7.76742252 Z" id="路径" fill="#A8B7C4"></path>
            <path d="M13.4981373,8.24707226 L7.9880146,13.183955 L2.47789189,8.22367472 C2.11835991,7.92535406 1.59735379,7.92535406 1.23782181,8.22367472 C1.07532938,8.35000612 0.980281618,8.54429582 0.980281618,8.75011956 C0.980281618,8.9559433 1.07532938,9.150233 1.23782181,9.2765644 L7.33288324,14.8100847 C7.61982161,15.0420984 8.01164355,15.0961428 8.3506766,14.95047 C8.41469826,14.9309772 8.47430446,14.8991873 8.52615823,14.8568798 L14.6797135,9.38185338 C14.8899213,9.24677428 15.0141693,9.01159061 15.0072792,8.76181833 C15.0012871,8.55154715 14.9028291,8.35463114 14.7382074,8.22367472 C14.3730703,7.93206822 13.8520144,7.94189946 13.4981373,8.24707226 L13.4981373,8.24707226 Z" id="路径" fill="#A8B7C4"></path>
        </g>
    </g>
</svg>