<?xml version="1.0" encoding="UTF-8"?>
<svg width="24px" height="24px" viewBox="0 0 24 24" version="1.1" xmlns="http://www.w3.org/2000/svg" xmlns:xlink="http://www.w3.org/1999/xlink">
    <!-- Generator: Sketch 54.1 (76490) - https://sketchapp.com -->
    <title>引用</title>
    <desc>Created with Sketch.</desc>
    <g id="引用" stroke="none" stroke-width="1" fill="none" fill-rule="evenodd">
        <g fill-rule="nonzero">
            <rect id="矩形" fill="#000000" opacity="0" x="0" y="0" width="24" height="24"></rect>
            <path d="M3.05337289,15.5872446 C3.04948755,11.3703106 5.25771172,7.46033567 8.87102024,5.28627276 C9.28017176,4.96387941 9.83952714,4.90906043 10.3034842,5.14588576 C10.7674413,5.3827111 11.0511636,5.86787624 11.0300742,6.38835455 C11.0089847,6.90883285 10.6869397,7.36945266 10.205343,7.56796471 C8.62265457,8.51353511 7.35519912,9.9063433 6.56264183,11.5709331 L7.00296834,11.5709331 C9.21374671,11.5709331 11.0059367,13.363123 11.0059367,15.5739014 C11.0059367,17.7846798 9.21374671,19.5768697 7.00296834,19.5768697 C4.79218997,19.5768697 3,17.7846798 3,15.5739014 L3.05337289,15.5872446 Z M13.7279552,15.5872446 C13.7287534,11.3750657 15.936371,7.47122818 19.5456025,5.29961599 C19.954754,4.97722264 20.5141094,4.92240366 20.9780665,5.15922899 C21.4420236,5.39605433 21.7257459,5.88121947 21.7046564,6.40169778 C21.6835669,6.92217608 21.361522,7.38279589 20.8799253,7.58130794 C19.2972368,8.52687834 18.0297814,9.91968653 17.2372241,11.5842763 L17.6775506,11.5842763 C19.888329,11.5842763 21.6805189,13.3764663 21.6805189,15.5872446 C21.6805189,17.798023 19.888329,19.590213 17.6775506,19.590213 C15.4667722,19.590213 13.6745823,17.798023 13.6745823,15.5872446 L13.7279552,15.5872446 Z" id="形状" fill="#4585F5"></path>
        </g>
    </g>
</svg>