<?xml version="1.0" encoding="UTF-8"?>
<svg width="24px" height="24px" viewBox="0 0 24 24" version="1.1" xmlns="http://www.w3.org/2000/svg" xmlns:xlink="http://www.w3.org/1999/xlink">
    <!-- Generator: Sketch 54.1 (76490) - https://sketchapp.com -->
    <title>有序列表</title>
    <desc>Created with Sketch.</desc>
    <g id="有序列表" stroke="none" stroke-width="1" fill="none" fill-rule="evenodd">
        <g>
            <rect id="矩形" x="0" y="0" width="24" height="24"></rect>
            <path d="M8.98379423,4.47175141 L19.9085638,4.47175141 C20.7313252,4.47175141 21.3983051,5.13873131 21.3983051,5.96149271 C21.3983051,6.78425412 20.7313252,7.45123402 19.9085638,7.45123402 L8.98379423,7.45123402 C8.16103283,7.45123402 7.49405293,6.78425412 7.49405293,5.96149271 C7.49405293,5.13873131 8.16103283,4.47175141 8.98379423,4.47175141 Z M8.98379423,10.9272971 L19.9085638,10.9272971 C20.7313252,10.9272971 21.3983051,11.594277 21.3983051,12.4170384 C21.3983051,13.2397998 20.7313252,13.9067797 19.9085638,13.9067797 L8.98379423,13.9067797 C8.16103283,13.9067797 7.49405293,13.2397998 7.49405293,12.4170384 C7.49405293,11.594277 8.16103283,10.9272971 8.98379423,10.9272971 Z M8.98379423,17.3828427 L19.9085638,17.3828427 C20.7313252,17.3828427 21.3983051,18.0498226 21.3983051,18.872584 C21.3983051,19.6953454 20.7313252,20.3623253 19.9085638,20.3623253 L8.98379423,20.3623253 C8.16103283,20.3623253 7.49405293,19.6953454 7.49405293,18.872584 C7.49405293,18.0498226 8.16103283,17.3828427 8.98379423,17.3828427 Z" id="形状结合" fill="#29CCB6"></path>
            <path d="M3.64661017,7.70764239 L3.64661017,4.96169644 C3.64661017,4.94548023 3.62118644,4.92926401 3.59576271,4.92926401 C3.37542373,4.92926401 3.35,4.92926401 3.35,4.89142617 L3.35,3.78872347 C3.35,3.76710185 3.38389831,3.74548023 3.42627119,3.74548023 L5.28220339,3.74548023 C5.31610169,3.74548023 5.35,3.76710185 5.35,3.78872347 L5.35,7.70223698 C5.35,7.7238586 5.32457627,7.74548023 5.29067797,7.74548023 L3.7059322,7.74548023 C3.68050847,7.74548023 3.64661017,7.72926401 3.64661017,7.70764239 Z M4.52216749,13.1310811 L5.88916256,13.1310811 C5.92610837,13.1310811 5.94827586,13.1527027 5.94827586,13.1797297 L5.94827586,14.2067568 C5.94827586,14.2337838 5.92610837,14.25 5.87438424,14.25 L3.06650246,14.25 C3.03694581,14.25 3,14.2337838 3,14.2121622 L3,13.1310811 C3,13.0878378 3.02216749,13.0283784 3.07389163,12.9689189 C3.62068966,12.3527027 4.61083744,11.9635135 4.61083744,11.5094595 C4.61083744,11.4337838 4.58128079,11.3851351 4.50738916,11.3851351 C4.40394089,11.3851351 4.31527094,11.5418919 4.31527094,11.7040541 C4.31527094,11.7310811 4.28571429,11.7472973 4.25615764,11.7472973 L3.11083744,11.7094595 C3.02216749,11.7040541 3.02216749,11.6824324 3.02216749,11.4662162 C3.02216749,10.8067568 3.53940887,10.25 4.47783251,10.25 C5.43103448,10.25 6,10.8121622 6,11.45 C6,12.2608108 5.38669951,12.622973 4.50738916,13.0716216 C4.49261084,13.0824324 4.47783251,13.0986486 4.47783251,13.1094595 C4.47783251,13.1256757 4.49261084,13.1310811 4.52216749,13.1310811 Z M3.97374702,18.9887235 L3.97374702,18.3508856 C3.97374702,18.2698046 4.00954654,18.2698046 4.32458234,18.2698046 C4.49642005,18.2698046 4.61097852,18.1995343 4.61097852,18.1130478 C4.61097852,17.7995343 4.61097852,17.7671018 4.49642005,17.7671018 C4.38186158,17.7671018 4.38186158,17.7941289 4.38186158,18.0373721 C4.38186158,18.0643991 4.35322196,18.0914262 4.30310263,18.0914262 L3.11455847,18.0535883 C3.07159905,18.0535883 3.05727924,18.0373721 3.05727924,18.0103451 C3.05727924,17.6103451 3.05727924,16.7454802 4.49642005,16.7454802 C5.34844869,16.7454802 5.94272076,17.1454802 5.94272076,17.7941289 C5.94272076,18.2373721 5.61336516,18.5346694 5.34128878,18.6373721 C5.29832936,18.6589937 5.26252983,18.6698046 5.26252983,18.6806154 C5.26252983,18.6914262 5.29832936,18.702237 5.35560859,18.7184532 C5.61336516,18.7833181 6,19.07521 6,19.5400748 C6,20.2319667 5.39140811,20.7454802 4.49642005,20.7454802 C3.61575179,20.7454802 3,20.2427775 3,19.5508856 C3,19.3184532 3,19.2860208 3.04295943,19.2860208 L4.33174224,19.2481829 C4.36754177,19.2481829 4.38186158,19.2643991 4.38186158,19.2914262 C4.38186158,19.6049397 4.38186158,19.6373721 4.49642005,19.6373721 C4.55369928,19.6373721 4.61097852,19.5995343 4.61097852,19.529264 C4.61097852,19.1346694 4.61097852,19.0481829 4.32458234,19.0481829 C4.00954654,19.0481829 3.97374702,19.0481829 3.97374702,18.9887235 Z" id="123" fill="#4585F5" fill-rule="nonzero"></path>
        </g>
    </g>
</svg>