<?xml version="1.0" encoding="UTF-8"?>
<svg width="24px" height="24px" viewBox="0 0 24 24" version="1.1" xmlns="http://www.w3.org/2000/svg" xmlns:xlink="http://www.w3.org/1999/xlink">
    <!-- Generator: Sketch 54.1 (76490) - https://sketchapp.com -->
    <title>表格/添加/行-上</title>
    <desc>Created with Sketch.</desc>
    <g id="表格/添加/行-上" stroke="none" stroke-width="1" fill="none" fill-rule="evenodd">
        <rect id="矩形" fill="#000000" fill-rule="nonzero" opacity="0" x="0" y="0" width="24" height="24"></rect>
        <g id="编组-2" transform="translate(12.000000, 12.000000) rotate(-90.000000) translate(-12.000000, -12.000000) translate(1.000000, 2.000000)">
            <g id="编组">
                <rect id="矩形" stroke="#4585F5" stroke-width="1.5" fill="#FFFFFF" x="0.75" y="0.75" width="6.5" height="18.5" rx="3"></rect>
                <rect id="矩形" fill="#4585F5" x="1" y="5.7" width="6" height="1.5"></rect>
                <rect id="矩形复制-2" fill="#4585F5" x="1" y="12.1" width="6" height="1.5"></rect>
            </g>
            <path d="M16.4394986,13.656723 L19.4946938,10.602042 C19.7108627,10.386152 19.7108627,10.0356819 19.4949638,9.8195218 C19.2788048,9.60335173 18.9283365,9.60335173 18.7121776,9.8195218 L15.6569724,12.8742028 L12.6023072,9.8189818 C12.3861382,9.60281173 12.0359599,9.60281173 11.819791,9.8189818 C11.603632,10.0348719 11.603632,10.385332 11.819521,10.601502 L14.8744562,13.656723 L11.818981,16.711674 C11.602812,16.927574 11.602812,17.2780241 11.818981,17.4941842 C11.9270604,17.6022842 12.0686498,17.6563142 12.2102291,17.6563142 C12.3518184,17.6563142 12.4934077,17.6022842 12.6014872,17.4941842 L15.6566924,14.4395032 L18.7116376,17.4947342 C18.819727,17.6028242 18.9613064,17.6568542 19.1028957,17.6568542 C19.244485,17.6568542 19.3860643,17.6028242 19.4941438,17.4947342 C19.7103227,17.2788341 19.7103227,16.928374 19.4944238,16.712214 L16.4394986,13.656723 Z" id="路径" stroke="#29CCB6" stroke-width="0.5" fill="#29CCB6" fill-rule="nonzero" transform="translate(15.656854, 13.656854) rotate(-135.000000) translate(-15.656854, -13.656854) "></path>
        </g>
    </g>
</svg>