<?xml version="1.0" encoding="UTF-8"?>
<svg width="24px" height="24px" viewBox="0 0 24 24" version="1.1" xmlns="http://www.w3.org/2000/svg" xmlns:xlink="http://www.w3.org/1999/xlink">
    <!-- Generator: Sketch 54.1 (76490) - https://sketchapp.com -->
    
    <desc>Created with Sketch.</desc>
    <g id="下载" stroke="none" stroke-width="1" fill="none" fill-rule="evenodd">
        <g fill-rule="nonzero">
            <rect id="矩形" fill="#000000" opacity="0" x="0" y="0" width="24" height="24"></rect>
            <path d="M11.8943672,15.7358437 C11.4397969,15.7358437 11.0120156,15.5594531 10.6903828,15.2389453 L5.95078125,10.4985703 C5.77148438,10.3192734 5.67274219,10.0808672 5.67274219,9.82734375 C5.67274219,9.57382031 5.77146094,9.33539062 5.95078125,9.15611719 C6.13010156,8.97684375 6.36846094,8.878125 6.62200781,8.878125 C6.87553125,8.878125 7.11396094,8.97679687 7.29323437,9.15611719 L11.8940625,13.7573906 L16.4959687,9.15611719 C16.6752656,8.97682031 16.9136484,8.878125 17.1671953,8.878125 C17.4207422,8.878125 17.6591484,8.97679687 17.8384219,9.15611719 C18.2085938,9.52628906 18.2085938,10.1283984 17.8384219,10.4986875 L13.0989375,15.2377969 C12.7776797,15.5590312 12.3499687,15.7358437 11.8943672,15.7358437 Z M11.8945078,15.5467969 C11.371125,15.5467969 10.9452891,15.1211016 10.9452891,14.5974609 L10.9452891,2.54599219 C10.9452891,2.02253906 11.3709844,1.59665625 11.8945078,1.59665625 C12.4180312,1.59665625 12.8438437,2.022375 12.8438437,2.54599219 L12.8438437,14.5974609 C12.8438437,15.1209844 12.418125,15.5467969 11.8945078,15.5467969 Z M4.86445312,23.0791641 C2.67958594,23.0791641 0.902226563,21.3017344 0.902226563,19.1169375 L0.902226563,8.06971875 C0.902226563,5.884875 2.67965625,4.10749219 4.86445312,4.10749219 C5.38783594,4.10749219 5.81367187,4.5331875 5.81367187,5.05671094 C5.81367187,5.58023437 5.38797656,6.00592969 4.86445312,6.00592969 C3.72642188,6.00592969 2.80073437,6.93171094 2.80073437,8.06964844 L2.80073437,19.1168672 C2.80073437,20.2547813 3.72649219,21.1805859 4.86445312,21.1805859 L18.9246328,21.1805859 C20.0625469,21.1805859 20.9883516,20.2548047 20.9883516,19.1168672 L20.9883516,8.06964844 C20.9883516,6.93173437 20.0625703,6.00592969 18.9246328,6.00592969 C18.40125,6.00592969 17.9754141,5.58023437 17.9754141,5.05671094 C17.9754141,4.5331875 18.4011094,4.10749219 18.9246328,4.10749219 C21.1095,4.10749219 22.8868594,5.88492187 22.8868594,8.06971875 L22.8868594,19.1169375 C22.8868594,21.3018047 21.1094297,23.0791641 18.9246328,23.0791641 L4.86445312,23.0791641 Z" id="形状" fill="#4585F5"></path>
        </g>
    </g>
</svg>