<?xml version="1.0" encoding="UTF-8"?>
<svg width="24px" height="24px" viewBox="0 0 24 24" version="1.1" xmlns="http://www.w3.org/2000/svg" xmlns:xlink="http://www.w3.org/1999/xlink">
    <!-- Generator: Sketch 54.1 (76490) - https://sketchapp.com -->
    
    <desc>Created with Sketch.</desc>
    <g id="表格/删除/行" stroke="none" stroke-width="1" fill="none" fill-rule="evenodd">
        <rect id="矩形" fill="#000000" fill-rule="nonzero" opacity="0" x="0" y="0" width="24" height="24"></rect>
        <g id="编组-2" transform="translate(12.000000, 5.000000) scale(-1, 1) rotate(-270.000000) translate(-12.000000, -5.000000) translate(8.000000, -5.000000)">
            <g id="编组">
                <rect id="矩形" stroke="#4585F5" stroke-width="1.5" fill="#FFFFFF" x="0.75" y="0.75" width="6.5" height="18.5" rx="3"></rect>
                <rect id="矩形" fill="#4585F5" x="1" y="5.7" width="6" height="1.5"></rect>
                <rect id="矩形复制-2" fill="#4585F5" x="1" y="12.1" width="6" height="1.5"></rect>
            </g>
        </g>
        <path d="M17.9783054,16.9998359 L21.7972994,13.1814847 C22.0675106,12.9116222 22.0675106,12.4735345 21.7976369,12.2033344 C21.5274382,11.9331219 21.0893528,11.9331219 20.8191541,12.2033344 L17.0001476,16.0216856 L13.1818161,12.2026594 C12.911605,11.9324469 12.4738821,11.9324469 12.2036709,12.2026594 C11.9334722,12.472522 11.9334722,12.9105972 12.2033334,13.1808097 L16.0220024,16.9998359 L12.2026584,20.8185246 C11.9324472,21.0883997 11.9324472,21.5264624 12.2026584,21.7966624 C12.3377577,21.9317875 12.5147444,21.999325 12.6917185,21.999325 C12.8687052,21.999325 13.0456918,21.9317875 13.1807912,21.7966624 L16.9997976,17.9783112 L20.8184791,21.7973499 C20.953591,21.9324625 21.1305651,22 21.3075518,22 C21.4845384,22 21.6615126,21.9324625 21.7966119,21.7973499 C22.0668356,21.5274749 22.0668356,21.0893997 21.7969619,20.8191996 L17.9783054,16.9998359 Z" id="路径" stroke="#29CCB6" stroke-width="0.5" fill="#29CCB6" fill-rule="nonzero"></path>
    </g>
</svg>