<?xml version="1.0" encoding="UTF-8"?>
<svg width="24px" height="24px" viewBox="0 0 24 24" version="1.1" xmlns="http://www.w3.org/2000/svg" xmlns:xlink="http://www.w3.org/1999/xlink">
    <!-- Generator: Sketch 54.1 (76490) - https://sketchapp.com -->
    
    <desc>Created with Sketch.</desc>
    <g id="H3" stroke="none" stroke-width="1" fill="none" fill-rule="evenodd">
        <g>
            <rect id="矩形" x="0" y="0" width="24" height="24"></rect>
            <g id="编组" transform="translate(2.000000, 4.000000)">
                <path d="M2.63157895,6.63157895 L10.0092879,6.63157895 L10.0092879,1.25 C10.0092879,0.559644063 10.568932,3.48860933e-16 11.2592879,2.22044605e-16 L11.3908668,2.22044605e-16 C12.0812228,9.52282766e-17 12.6408668,0.559644063 12.6408668,1.25 L12.6408668,15.3243305 C12.6408668,16.0146865 12.0812228,16.5743305 11.3908668,16.5743305 L11.2592879,16.5743305 C10.568932,16.5743305 10.0092879,16.0146865 10.0092879,15.3243305 L10.0092879,9.26315789 L2.63157895,9.26315789 L2.63157895,15.3243305 C2.63157895,16.0146865 2.07193488,16.5743305 1.38157895,16.5743305 L1.25,16.5743305 C0.559644063,16.5743305 -1.12682555e-13,16.0146865 -1.13686838e-13,15.3243305 L-1.13686838e-13,1.25 C-1.13771382e-13,0.559644063 0.559644063,1.26816328e-16 1.25,0 L1.38157895,0 C2.07193488,-1.26816328e-16 2.63157895,0.559644063 2.63157895,1.25 L2.63157895,6.63157895 Z" id="形状结合" fill="#4585F5"></path>
                <path d="M20.5881007,13.1464531 C20.4753182,14.931359 19.3851035,15.8581232 17.317424,15.9267735 C15.588092,15.8924483 14.5730646,15.2059564 14.2723112,13.8672769 C14.3099054,13.4553755 14.4978734,13.2322656 14.836221,13.1979405 C15.1745685,13.1636154 15.418927,13.369563 15.5693037,13.8157895 C15.8324629,14.6052671 16.396367,15 17.261033,15 C18.4640466,14.8970247 19.1219347,14.3135065 19.2347172,13.2494279 C19.2347172,12.082374 18.6332195,11.4988558 17.4302059,11.4988558 C16.9414817,11.4988558 16.6783264,11.3443951 16.6407323,11.0354691 C16.6031381,10.7951933 16.8286997,10.6235703 17.317424,10.520595 C18.3324667,10.3489694 18.8211836,9.8341004 18.7835894,8.97597254 C18.7084011,8.04919445 18.2196841,7.55148776 17.317424,7.48283753 C16.4151638,7.48283753 15.9264469,7.92905732 15.8512586,8.8215103 C15.8136644,9.23341167 15.6068996,9.42219697 15.2309578,9.38787185 C14.8926103,9.35354674 14.7046422,9.16476144 14.6670481,8.8215103 C14.8174247,7.34553038 15.7196714,6.55606459 17.373815,6.45308924 C18.9903644,6.55606459 19.8738142,7.36269268 20.0241909,8.87299771 C19.9865967,9.73112557 19.5918638,10.4004553 18.8399804,10.8810069 C19.9678056,11.224258 20.5505065,11.9793992 20.5881007,13.1464531 Z" id="3" stroke="#29CCB6" stroke-width="0.4" fill="#29CCB6" fill-rule="nonzero"></path>
            </g>
        </g>
    </g>
</svg>