<?xml version="1.0" encoding="utf-8"?>
<!-- Generator: Adobe Illustrator 22.0.0, SVG Export Plug-In . SVG Version: 6.00 Build 0)  -->
<svg version="1.1" id="图层_1" xmlns="http://www.w3.org/2000/svg" xmlns:xlink="http://www.w3.org/1999/xlink" x="0px" y="0px"
	 viewBox="0 0 24 24" style="enable-background:new 0 0 24 24;" xml:space="preserve">
<style type="text/css">
	.st0{fill:#FEFEFE;}
</style>

<path class="st0" d="M12.4,14.9c-0.5,0.2-0.8,0.8-0.5,1.3c0,0,0,0,0,0c0.2,0.4,0.1,0.8-0.2,1.1l-2.8,2.8c-0.8,0.8-2,0.8-2.8,0
	L3.9,18c-0.8-0.8-0.8-2,0-2.8c0,0,0,0,0,0l2.8-2.8C7,12.1,7.4,12,7.8,12.1c0.5,0.2,1.1,0,1.3-0.5c0.2-0.5,0-1.1-0.5-1.3
	c-1.1-0.5-2.4-0.2-3.3,0.7l-2.8,2.8c-1.6,1.6-1.6,4.1,0,5.7l2.1,2.1c1.6,1.6,4.1,1.6,5.7,0l2.8-2.8c0.9-0.9,1.1-2.1,0.7-3.3
	C13.5,14.9,12.9,14.7,12.4,14.9z"/>
<path class="st0" d="M7.8,16.2c0.4,0.4,1,0.4,1.4,0L17,8.5c0.4-0.4,0.4-1,0-1.4c-0.4-0.4-1-0.4-1.4,0l-7.8,7.8
	C7.4,15.2,7.4,15.9,7.8,16.2z"/>
<path class="st0" d="M21.5,4.6l-2.1-2.1c-1.6-1.6-4.1-1.6-5.7,0l-2.8,2.8c-0.9,0.9-1.1,2.1-0.7,3.3c0.2,0.5,0.8,0.8,1.3,0.5
	c0.5-0.2,0.8-0.8,0.5-1.3C12,7.4,12.1,7,12.4,6.7l2.8-2.8c0.8-0.8,2-0.8,2.8,0c0,0,0,0,0,0L20.1,6c0.8,0.8,0.8,2,0,2.8c0,0,0,0,0,0
	l-2.8,2.8c-0.3,0.3-0.7,0.4-1.1,0.2c-0.5-0.2-1.1,0-1.3,0.5s0,1.1,0.5,1.3l0,0c1.1,0.5,2.4,0.2,3.3-0.7l2.8-2.8
	C23.1,8.7,23.1,6.1,21.5,4.6z"/>
</svg>
