<?xml version="1.0" encoding="UTF-8"?>
<svg width="24px" height="24px" viewBox="0 0 24 24" version="1.1" xmlns="http://www.w3.org/2000/svg" xmlns:xlink="http://www.w3.org/1999/xlink">
    <!-- Generator: Sketch 54.1 (76490) - https://sketchapp.com -->
    
    <desc>Created with Sketch.</desc>
    <g id="加粗" stroke="none" stroke-width="1" fill="none" fill-rule="evenodd">
        <g fill-rule="nonzero">
            <rect id="矩形" fill="#000000" opacity="0" x="0" y="0" width="24" height="24"></rect>
            <path d="M8.784625,18.979125 L11.908375,18.979125 C13.6707083,18.979125 14.9138333,18.7524583 15.635625,18.2977083 C16.358125,17.844375 16.719375,17.0914167 16.719375,16.04025 C16.719375,14.979875 16.3744167,14.2247917 15.6852083,13.7757083 C14.9952917,13.326625 13.7833333,13.1020833 12.048625,13.1020833 L8.784625,13.1020833 L8.784625,18.979125 Z M8.784625,11.3390417 L11.7249167,11.3390417 C13.0565833,11.3390417 14.044,11.1237083 14.68575,10.6944583 C15.3289167,10.2637917 15.6497917,9.60008333 15.6497917,8.70120833 C15.6497917,7.85120833 15.359375,7.19883333 14.7778333,6.74479167 C14.1962917,6.29145833 13.3611667,6.06408333 12.273875,6.06408333 L8.784625,6.06408333 L8.784625,11.3390417 L8.784625,11.3390417 Z M12.822125,21 L5.98458333,21 C5.656625,21 5.41083333,20.9142917 5.2465,20.7421667 C5.08216667,20.5700417 5,20.3122083 5,19.9679583 C5,19.5854583 5.33291667,18.979125 6.11208333,18.979125 L6.57604167,18.979125 L6.57604167,6.06408333 L6.11208333,6.06408333 C5.38958333,6.06408333 5.085,5.42375 5.085,5.03204167 C5.085,4.69770833 5.16858333,4.442 5.337875,4.26491667 C5.50645833,4.08783333 5.750125,4 6.068875,4 L11.9643333,4 C13.952625,4 15.4670417,4.39383333 16.5075833,5.18291667 C17.5488333,5.97058333 18.0694583,7.11525 18.0694583,8.6155 C18.0694583,9.37058333 17.9100833,10.0300417 17.5913333,10.593875 C17.2725833,11.1577083 16.798,11.6209583 16.1704167,11.9843333 C17.1833333,12.3569167 17.9355833,12.8768333 18.427875,13.5462083 C18.9201667,14.2155833 19.1666667,15.0655833 19.1666667,16.097625 C19.1666667,16.9674583 18.9555833,17.7607917 18.5334167,18.477625 C18.11125,19.19375 17.51625,19.7809583 16.747,20.2399583 C16.270126,20.5142402 15.7523824,20.7103371 15.2134583,20.8207917 C14.6510417,20.9405 13.8534583,21 12.822125,21 L12.822125,21 Z" id="形状" fill="#4585F5"></path>
        </g>
    </g>
</svg>