<?xml version="1.0" encoding="UTF-8"?>
<svg width="24px" height="24px" viewBox="0 0 24 24" version="1.1" xmlns="http://www.w3.org/2000/svg" xmlns:xlink="http://www.w3.org/1999/xlink">
    <!-- Generator: Sketch 54.1 (76490) - https://sketchapp.com -->
    
    <desc>Created with Sketch.</desc>
    <g id="打开/白色" stroke="none" stroke-width="1" fill="none" fill-rule="evenodd">
        <g id="打开" fill-rule="nonzero">
            <rect id="矩形" fill="#000000" opacity="0" x="0" y="0" width="24" height="24"></rect>
            <path d="M23.5666185,8.15714081 L20.9120331,8.13663069 L20.9120331,6.14222572 C20.9120331,5.5485067 20.5792348,5.06831534 20.0360125,5.06831534 L10.4654498,5.06831534 L10.4654498,3.13527668 C10.4654498,2.50780619 9.60882996,2 9.03426788,2 L8.73280933,2 L0.972490311,2 C0.39643586,2 0.0188664926,2.50780619 0.0188664926,3.13527668 L0.0188664926,6.14222572 L0.0188664926,10.0696694 L0.0188664926,21.8673419 C0.0188664926,21.9179691 -0.00501141209,21.9609255 0.000958064077,22.0100185 C0.00692754025,21.9609255 0.0188664926,21.9179691 0.032297814,21.8673419 L1.51123553,15.9546982 L1.51123553,10.0696694 L1.51123553,6.14222572 L1.51123553,3.53415767 L8.97308075,3.53415767 L8.97308075,5.06831534 L8.97308075,6.60247302 L9.77299055,6.60247302 L19.419664,6.60247302 L19.419664,8.13663069 L4.20496166,8.13663069 C3.66472406,8.13663069 3.10956278,8.61682204 2.96331061,9.21054106 L1.54705239,15.9546982 L0.0905002066,21.8673419 C0.0785612543,21.9179691 0.0875154685,21.9609255 0.0815459924,22.0100185 C0.0188664926,22.5331663 0.309878456,22.9412522 0.80236024,22.9412522 L1.03815455,22.9412522 L19.7823097,22.9412522 L20.1598791,22.9412522 C20.6254982,22.9412522 20.8598002,22.5822593 20.9209873,22.1082046 C20.9582965,22.0284284 21.0030676,21.9532547 21.0239608,21.8673419 L23.8967712,9.21054106 C24.0445157,8.61682204 24.1068561,8.15714081 23.5666185,8.15714081 Z M20.9478499,15.358919 L19.613672,21.4070946 L19.4554809,21.4070946 L1.73359852,21.4070946 L4.37359936,9.44066471 L19.4554809,9.44066471 L20.9478499,9.44066471 L22.2536729,9.44066471 L20.9478499,15.358919 Z" id="形状" fill="#FFFFFF"></path>
            <polygon id="路径" fill="#FFFFFF" points="7.5016978 12.2307692 17.9775875 12.2307692 17.9775875 13.7692308 7.5016978 13.7692308"></polygon>
        </g>
    </g>
</svg>