<?xml version="1.0" encoding="UTF-8"?>
<svg width="18px" height="18px" viewBox="0 0 18 18" version="1.1" xmlns="http://www.w3.org/2000/svg" xmlns:xlink="http://www.w3.org/1999/xlink">
    <!-- Generator: Sketch 54.1 (76490) - https://sketchapp.com -->
    
    <desc>Created with Sketch.</desc>
    <g id="时间" stroke="none" stroke-width="1" fill="none" fill-rule="evenodd">
        <g fill-rule="nonzero">
            <rect id="矩形" fill="#000000" opacity="0" x="0" y="0" width="18" height="18"></rect>
            <path d="M9.207,2.565 C12.753,2.565 15.642,5.454 15.642,9 C15.642,12.546 12.753,15.435 9.207,15.435 C5.661,15.435 2.763,12.546 2.763,9 C2.763,5.454 5.652,2.565 9.207,2.565 L9.207,2.565 Z M9.207,1.53 C5.085,1.53 1.737,4.878 1.737,9 C1.737,13.122 5.076,16.47 9.207,16.47 C13.329,16.47 16.677,13.131 16.677,9 C16.677,4.878 13.329,1.53 9.207,1.53 L9.207,1.53 Z M9.981,10.458 C9.846,10.458 9.72,10.404 9.621,10.305 L6.894,7.578 C6.696,7.38 6.696,7.047 6.894,6.849 C7.092,6.651 7.425,6.651 7.623,6.849 L10.35,9.576 C10.548,9.774 10.548,10.107 10.35,10.305 C10.251,10.404 10.116,10.458 9.981,10.458 Z M9.207,10.98 C8.919,10.98 8.694,10.746 8.694,10.467 L8.694,5.391 C8.694,5.103 8.928,4.878 9.207,4.878 C9.495,4.878 9.72,5.112 9.72,5.391 L9.72,10.458 C9.72,10.746 9.486,10.98 9.207,10.98 Z M4.203,9.513 L3.429,9.513 C3.141,9.513 2.916,9.279 2.916,9 C2.916,8.712 3.15,8.487 3.429,8.487 L4.203,8.487 C4.491,8.487 4.716,8.721 4.716,9 C4.716,9.279 4.491,9.513 4.203,9.513 Z M14.985,9.513 L14.22,9.513 C13.932,9.513 13.707,9.279 13.707,9 C13.707,8.712 13.941,8.487 14.22,8.487 L14.994,8.487 C15.282,8.487 15.507,8.721 15.507,9 C15.507,9.279 15.273,9.513 14.985,9.513 Z M9.198,4.491 C9.198,4.491 9.198,4.491 9.198,4.491 C8.91,4.491 8.685,4.257 8.685,3.978 L8.685,3.204 C8.685,2.916 8.919,2.691 9.198,2.691 C9.198,2.691 9.198,2.691 9.198,2.691 C9.486,2.691 9.711,2.925 9.711,3.204 L9.711,3.978 C9.711,4.257 9.477,4.491 9.198,4.491 Z M9.198,15.309 C8.91,15.309 8.685,15.075 8.685,14.796 L8.685,14.022 C8.685,13.734 8.919,13.509 9.198,13.509 C9.198,13.509 9.198,13.509 9.198,13.509 C9.486,13.509 9.711,13.743 9.711,14.022 L9.711,14.796 C9.711,15.075 9.477,15.309 9.198,15.309 C9.198,15.309 9.198,15.309 9.198,15.309 Z" id="形状" fill="#A8B7C4"></path>
        </g>
    </g>
</svg>