<?xml version="1.0" encoding="UTF-8"?>
<svg width="24px" height="24px" viewBox="0 0 24 24" version="1.1" xmlns="http://www.w3.org/2000/svg" xmlns:xlink="http://www.w3.org/1999/xlink">
    <!-- Generator: Sketch 54.1 (76490) - https://sketchapp.com -->
    <desc>Created with Sketch.</desc>
    <g id="H1" stroke="none" stroke-width="1" fill="none" fill-rule="evenodd">
        <g>
            <rect id="矩形" x="0" y="0" width="24" height="24"></rect>
            <path d="M4.64643113,10.6690065 L12.0601348,10.6690065 L12.0601348,5.25 C12.0601348,4.55964406 12.6197789,4 13.3101348,4 L13.4565659,4 C14.1469219,4 14.7065659,4.55964406 14.7065659,5.25 L14.7065659,19.4178732 C14.7065659,20.1082292 14.1469219,20.6678732 13.4565659,20.6678732 L13.3101348,20.6678732 C12.6197789,20.6678732 12.0601348,20.1082292 12.0601348,19.4178732 L12.0601348,13.3154376 L4.64643113,13.3154376 L4.64643113,19.4178732 C4.64643113,20.1082292 4.08678707,20.6678732 3.39643113,20.6678732 L3.25,20.6678732 C2.55964406,20.6678732 2,20.1082292 2,19.4178732 L2,5.25 C2,4.55964406 2.55964406,4 3.25,4 L3.39643113,4 C4.08678707,4 4.64643113,4.55964406 4.64643113,5.25 L4.64643113,10.6690065 Z" id="形状结合" fill="#4585F5"></path>
            <rect id="矩形复制-3" fill="#29CCB6" x="18.9557311" y="11.1453641" width="2.11714491" height="9.52715208" rx="1"></rect>
            <path d="M17.4139598,12.3783346 L19.4887191,11.2683556 C19.9531335,11.0198978 20.5306549,11.1742558 20.8091818,11.6212847 L20.8654244,11.7115527 C21.1504412,12.1689974 21.0106606,12.7708813 20.5532159,13.055898 C20.5350039,13.0672453 20.5164227,13.0779887 20.4975024,13.0881109 L18.4227431,14.1980899 C17.9583287,14.4465477 17.3808073,14.2921897 17.1022804,13.8451608 L17.0460377,13.7548928 C16.761021,13.2974481 16.9008015,12.6955642 17.3582463,12.4105474 C17.3764582,12.3992002 17.3950395,12.3884568 17.4139598,12.3783346 Z" id="矩形" fill="#29CCB6"></path>
        </g>
    </g>
</svg>